<?xml version="1.0" encoding="UTF-8"?>
<svg width="361px" height="416px" viewBox="0 0 361 416" version="1.1" xmlns="http://www.w3.org/2000/svg" xmlns:xlink="http://www.w3.org/1999/xlink">
    <!-- Generator: Sketch 46.2 (44496) - http://www.bohemiancoding.com/sketch -->
    <title>Group 5</title>
    <desc>Created with Sketch.</desc>
    <defs>
        <polygon id="path-1" points="10.1321 0.671 0.3301 0.671 0.3301 12.1069 10.1321 12.1069 10.1321 0.671"></polygon>
        <polygon id="path-3" points="0 22 0 0 30 0 30 22"></polygon>
    </defs>
    <g id="Supporting-someone-struggling-with-debt" stroke="none" stroke-width="1" fill="none" fill-rule="evenodd">
        <g id="Group-11" transform="translate(-146.000000, -666.000000)">
            <g id="Group-5" transform="translate(146.000000, 666.000000)">
                <g id="Group-4-Copy" transform="translate(182.500000, 230.500000) rotate(-2.000000) translate(-182.500000, -230.500000) translate(53.000000, 50.000000)">
                    <rect id="paper" fill="#D9D8CB" x="0" y="0" width="259" height="361" rx="8"></rect>
                    <g id="lines" transform="translate(26.000000, 0.000000)" opacity="0.2">
                        <path d="M1.5,0.5 L1.5,360.534721" id="Line" stroke="#E4583F"></path>
                        <path d="M232.623021,49.5115735 L2.41397849,49.5115735" id="Line-Copy-2" stroke="#E4583F"></path>
                        <path d="M232.623021,72.5115735 L2.41397849,72.5115735" id="Line-Copy-3" stroke="#4E87BC"></path>
                        <path d="M232.623021,95.5115735 L2.41397849,95.5115735" id="Line-Copy-4" stroke="#4E87BC"></path>
                        <path d="M232.623021,118.511574 L2.41397849,118.511574" id="Line-Copy-5" stroke="#4E87BC"></path>
                        <path d="M232.623021,141.511574 L2.41397849,141.511574" id="Line-Copy-6" stroke="#4E87BC"></path>
                        <path d="M232.623021,164.511574 L2.41397849,164.511574" id="Line-Copy-7" stroke="#4E87BC"></path>
                        <path d="M232.623021,187.511574 L2.41397849,187.511574" id="Line-Copy-8" stroke="#4E87BC"></path>
                        <path d="M232.623021,210.511574 L2.41397849,210.511574" id="Line-Copy-9" stroke="#4E87BC"></path>
                        <path d="M232.623021,233.511574 L2.41397849,233.511574" id="Line-Copy-10" stroke="#4E87BC"></path>
                        <path d="M232.623021,256.511574 L2.41397849,256.511574" id="Line-Copy-11" stroke="#4E87BC"></path>
                        <path d="M232.623021,279.511574 L2.41397849,279.511574" id="Line-Copy-12" stroke="#4E87BC"></path>
                        <path d="M232.623021,302.511574 L2.41397849,302.511574" id="Line-Copy-13" stroke="#4E87BC"></path>
                        <path d="M232.623021,325.511574 L2.41397849,325.511574" id="Line-Copy-14" stroke="#E4583F"></path>
                    </g>
                </g>
                <g id="Group-4-Copy-2" transform="translate(182.500000, 211.500000) rotate(4.000000) translate(-182.500000, -211.500000) translate(53.000000, 31.000000)">
                    <rect id="paper" fill="#D9D8CB" x="0" y="0" width="259" height="361" rx="8"></rect>
                    <g id="lines" transform="translate(26.000000, 0.000000)" opacity="0.2">
                        <path d="M1.5,0.5 L1.5,360.534721" id="Line" stroke="#E4583F"></path>
                        <path d="M232.623021,49.5115735 L2.41397849,49.5115735" id="Line-Copy-2" stroke="#E4583F"></path>
                        <path d="M232.623021,72.5115735 L2.41397849,72.5115735" id="Line-Copy-3" stroke="#4E87BC"></path>
                        <path d="M232.623021,95.5115735 L2.41397849,95.5115735" id="Line-Copy-4" stroke="#4E87BC"></path>
                        <path d="M232.623021,118.511574 L2.41397849,118.511574" id="Line-Copy-5" stroke="#4E87BC"></path>
                        <path d="M232.623021,141.511574 L2.41397849,141.511574" id="Line-Copy-6" stroke="#4E87BC"></path>
                        <path d="M232.623021,164.511574 L2.41397849,164.511574" id="Line-Copy-7" stroke="#4E87BC"></path>
                        <path d="M232.623021,187.511574 L2.41397849,187.511574" id="Line-Copy-8" stroke="#4E87BC"></path>
                        <path d="M232.623021,210.511574 L2.41397849,210.511574" id="Line-Copy-9" stroke="#4E87BC"></path>
                        <path d="M232.623021,233.511574 L2.41397849,233.511574" id="Line-Copy-10" stroke="#4E87BC"></path>
                        <path d="M232.623021,256.511574 L2.41397849,256.511574" id="Line-Copy-11" stroke="#4E87BC"></path>
                        <path d="M232.623021,279.511574 L2.41397849,279.511574" id="Line-Copy-12" stroke="#4E87BC"></path>
                        <path d="M232.623021,302.511574 L2.41397849,302.511574" id="Line-Copy-13" stroke="#4E87BC"></path>
                        <path d="M232.623021,325.511574 L2.41397849,325.511574" id="Line-Copy-14" stroke="#E4583F"></path>
                    </g>
                </g>
                <g id="Group-4" transform="translate(182.500000, 211.500000) rotate(-4.000000) translate(-182.500000, -211.500000) translate(53.000000, 31.000000)">
                    <rect id="paper" fill="#EDECDF" x="0" y="0" width="259" height="361" rx="8"></rect>
                    <g id="lines" transform="translate(26.000000, 0.000000)" opacity="0.2">
                        <path d="M1.5,0.5 L1.5,360.534721" id="Line" stroke="#E4583F"></path>
                        <path d="M232.623021,49.5115735 L2.41397849,49.5115735" id="Line-Copy-2" stroke="#E4583F"></path>
                        <path d="M232.623021,72.5115735 L2.41397849,72.5115735" id="Line-Copy-3" stroke="#4E87BC"></path>
                        <path d="M232.623021,95.5115735 L2.41397849,95.5115735" id="Line-Copy-4" stroke="#4E87BC"></path>
                        <path d="M232.623021,118.511574 L2.41397849,118.511574" id="Line-Copy-5" stroke="#4E87BC"></path>
                        <path d="M232.623021,141.511574 L2.41397849,141.511574" id="Line-Copy-6" stroke="#4E87BC"></path>
                        <path d="M232.623021,164.511574 L2.41397849,164.511574" id="Line-Copy-7" stroke="#4E87BC"></path>
                        <path d="M232.623021,187.511574 L2.41397849,187.511574" id="Line-Copy-8" stroke="#4E87BC"></path>
                        <path d="M232.623021,210.511574 L2.41397849,210.511574" id="Line-Copy-9" stroke="#4E87BC"></path>
                        <path d="M232.623021,233.511574 L2.41397849,233.511574" id="Line-Copy-10" stroke="#4E87BC"></path>
                        <path d="M232.623021,256.511574 L2.41397849,256.511574" id="Line-Copy-11" stroke="#4E87BC"></path>
                        <path d="M232.623021,279.511574 L2.41397849,279.511574" id="Line-Copy-12" stroke="#4E87BC"></path>
                        <path d="M232.623021,302.511574 L2.41397849,302.511574" id="Line-Copy-13" stroke="#4E87BC"></path>
                        <path d="M232.623021,325.511574 L2.41397849,325.511574" id="Line-Copy-14" stroke="#E4583F"></path>
                    </g>
                </g>
                <g id="after-copy">
                    <g id="letter" transform="translate(51.000000, 41.000000)">
                        <g>
                            <rect id="paper" fill="#FBFAF0" x="0" y="0" width="259" height="361" rx="8"></rect>
                            <g id="lines" transform="translate(26.000000, 0.000000)" opacity="0.2">
                                <path d="M1.5,0.5 L1.5,360.534721" id="Line" stroke="#E4583F"></path>
                                <path d="M232.623021,49.5115735 L2.41397849,49.5115735" id="Line-Copy-2" stroke="#E4583F"></path>
                                <path d="M232.623021,72.5115735 L2.41397849,72.5115735" id="Line-Copy-3" stroke="#4E87BC"></path>
                                <path d="M232.623021,95.5115735 L2.41397849,95.5115735" id="Line-Copy-4" stroke="#4E87BC"></path>
                                <path d="M232.623021,118.511574 L2.41397849,118.511574" id="Line-Copy-5" stroke="#4E87BC"></path>
                                <path d="M232.623021,141.511574 L2.41397849,141.511574" id="Line-Copy-6" stroke="#4E87BC"></path>
                                <path d="M232.623021,164.511574 L2.41397849,164.511574" id="Line-Copy-7" stroke="#4E87BC"></path>
                                <path d="M232.623021,187.511574 L2.41397849,187.511574" id="Line-Copy-8" stroke="#4E87BC"></path>
                                <path d="M232.623021,210.511574 L2.41397849,210.511574" id="Line-Copy-9" stroke="#4E87BC"></path>
                                <path d="M232.623021,233.511574 L2.41397849,233.511574" id="Line-Copy-10" stroke="#4E87BC"></path>
                                <path d="M232.623021,256.511574 L2.41397849,256.511574" id="Line-Copy-11" stroke="#4E87BC"></path>
                                <path d="M232.623021,279.511574 L2.41397849,279.511574" id="Line-Copy-12" stroke="#4E87BC"></path>
                                <path d="M232.623021,302.511574 L2.41397849,302.511574" id="Line-Copy-13" stroke="#4E87BC"></path>
                                <path d="M232.623021,325.511574 L2.41397849,325.511574" id="Line-Copy-14" stroke="#E4583F"></path>
                            </g>
                            <text id="Hi-Lucy!-I-was-sorry" font-family="RoughNotesSample, Rough Notes Sample" font-size="14" font-weight="normal" line-spacing="23" fill="#01031B">
                                <tspan x="33" y="42">Hi Lucy!</tspan>
                                <tspan x="33" y="65"></tspan>
                                <tspan x="33" y="88">	I was sorry to hear about </tspan>
                                <tspan x="33" y="111">your situation. I remember being </tspan>
                                <tspan x="33" y="134">in a very similar one not long ago. </tspan>
                                <tspan x="33" y="157">For me, stopping and realising what </tspan>
                                <tspan x="33" y="180">was going on was one of the hardest </tspan>
                                <tspan x="33" y="203">things to do. So well done for getting </tspan>
                                <tspan x="33" y="226">this far!</tspan>
                                <tspan x="33" y="249"></tspan>
                                <tspan x="33" y="272">	I thought you might like to </tspan>
                                <tspan x="33" y="295">hear my story. I hope that some of </tspan>
                                <tspan x="33" y="318">it might be useful .</tspan>
                            </text>
                        </g>
                    </g>
                    <g id="decoration">
                        <path d="M23.0814822,98.9600395 C22.9657204,99.3001911 22.8494542,99.6406457 22.7339447,99.9807973 C22.65904,100.175862 22.5843875,100.370927 22.5089785,100.565991 C22.483758,100.628388 22.4582854,100.690784 22.433065,100.752272 C21.9314307,101.704273 21.4981438,102.721093 20.9152997,103.594946 C19.6515041,105.486529 17.9713193,106.607848 15.9541896,106.834717 C14.5774065,106.990102 13.1870044,106.971323 11.8018986,106.999492 C10.8026653,107.019786 9.96509493,106.428231 9.09196376,105.93754 C6.98681476,104.75443 5.404233,102.925547 4.04232996,100.682909 C3.04007021,99.0318257 1.77223937,97.6118516 0.621683514,96.0901046 C0.429503864,95.8365811 0.227236043,95.5924473 0,95.3053024 C0.793182414,94.3751103 1.55408268,93.4824773 2.31422634,92.5898442 C2.71623994,92.2018351 3.11850574,91.8150375 3.56616831,91.3834115 C3.71421221,91.8556255 3.84283639,92.2660489 3.97171277,92.6764723 C4.00853459,92.7824858 4.04560862,92.8884992 4.08217824,92.9939068 C4.25418155,93.5878849 4.42568045,94.1815601 4.59793596,94.7752353 C4.69604342,95.1474938 4.79465529,95.5188437 4.89276275,95.8904965 C5.15152432,96.5574724 5.41003369,97.2247512 5.66803866,97.8917271 C6.50939209,97.9995579 7.35024111,98.1070858 8.19083792,98.2155224 C8.21479733,98.1446448 8.23825233,98.0743731 8.26221173,98.0034955 C8.08087686,97.7163506 7.8997942,97.4292056 7.71845933,97.1426665 C7.37874019,96.1900601 7.03826443,95.2380596 6.69854529,94.286059 L6.63927728,93.9592348 C6.62162298,92.4577818 6.60422089,90.9566317 6.58656659,89.4560874 C6.65415734,89.0065905 6.72174808,88.5573964 6.78933882,88.1085053 C6.85365091,87.967356 6.917963,87.8268125 6.9830317,87.6856632 C6.99917277,87.5778324 7.01556605,87.4709103 7.03246373,87.3633824 C7.20320602,86.7070078 7.3910982,86.0563883 7.53964651,85.3939558 C7.64103263,84.9435502 7.80622642,84.892058 8.08819079,85.1746595 C8.11492444,85.2479602 8.1245082,85.3454925 8.16990497,85.3900182 C9.95803321,87.1083444 10.7993866,89.6154104 11.9272441,91.8798572 C12.5678429,93.1671631 13.1544701,94.4935424 13.7685875,95.7999307 C13.8424833,95.9574364 13.9368077,96.1004031 14.0583702,96.3157618 C14.6820713,95.6875565 15.3264532,95.2247322 15.6306115,94.2603129 C15.9683131,93.1898802 16.400339,92.1457994 16.8974336,91.1665383 C17.6883461,89.6081409 19.1072473,88.9629735 20.5839033,89.3679448 C21.6255069,89.6526666 22.647943,89.784729 23.6673527,89.2065015 C24.0539818,88.9878109 24.5008878,88.9199623 25,88.859989 C23.686268,91.6626811 23.5334322,94.6825492 23.5387285,97.738159 C23.4855134,97.8771881 23.4322983,98.0159142 23.3790832,98.1549433 C23.3498275,98.2506582 23.3205718,98.3466761 23.2918205,98.442694 C23.2217077,98.6153444 23.1515949,98.787692 23.0814822,98.9600395 M19.5503702,92.0200978 C19.3546597,92.3463162 19.1486088,92.5389578 19.1559228,92.7185748 C19.1637411,92.9097019 19.3748361,93.0875015 19.4969029,93.271662 C19.6489821,93.0953768 19.882271,92.9439291 19.9271634,92.735537 C19.9589411,92.5849979 19.7387668,92.3581292 19.5503702,92.0200978" id="Fill-1" fill="#BE6E15"></path>
                        <g id="Page-1" transform="translate(220.000000, 84.500000) rotate(35.000000) translate(-220.000000, -84.500000) translate(156.000000, 49.000000)">
                            <g id="Group-12" transform="translate(-0.000000, 0.329000)">
                                <path d="M120.405823,13.2894079 C120.431823,13.3194079 120.457823,13.3494079 120.482823,13.3794079 C122.328823,15.5714079 123.051823,16.2744079 125.880823,15.2194079 C126.048823,15.1564079 126.222823,15.0934079 126.401823,15.1054079 C126.917823,15.1434079 127.176823,15.8214079 126.992823,16.3054079 C126.657823,17.1874079 125.639823,17.5464079 125.342823,18.5274079 C125.054823,19.4734079 127.926823,24.0824079 126.081823,23.4734079 L123.088823,22.4864079 C122.776823,22.3834079 122.432823,22.4934079 122.238823,22.7584079 C121.777823,23.3864079 120.494823,25.8614079 119.536823,25.5494079 C118.568823,25.2334079 119.013823,22.4734079 119.017823,21.6934079 C119.020823,20.0984079 114.398823,20.6024079 115.065823,19.0564079 C115.546823,17.9414079 117.675823,18.1164079 118.471823,17.1544079 C119.430823,15.9964079 118.665823,14.8874079 119.019823,13.6854079 C119.158823,13.2114079 119.723823,12.8344079 120.154823,13.0744079 C120.251823,13.1284079 120.331823,13.2064079 120.405823,13.2894079" id="Fill-5" fill="#FFD900"></path>
                                <g id="Group-9" transform="translate(59.000000, 0.000000)">
                                    <mask id="mask-2" fill="white">
                                        <use xlink:href="#path-1"></use>
                                    </mask>
                                    <g id="Clip-8"></g>
                                    <polygon id="Fill-7" fill="#05743C" mask="url(#mask-2)" points="10.1321 9.2479 6.0481 12.1069 0.3301 1.0799 6.0481 0.6709"></polygon>
                                </g>
                                <path d="M3.1429,68.3192 C3.1469,68.2792 3.1519,68.2402 3.1569,68.2012 C3.5369,65.3612 3.5689,64.3522 0.8859,62.9702 C0.7259,62.8882 0.5619,62.8022 0.4519,62.6612 C0.1319,62.2552 0.4589,61.6072 0.9409,61.4172 C1.8189,61.0712 2.7689,61.5832 3.6949,61.1432 C4.5879,60.7192 6.0649,55.4932 6.8559,57.2672 L8.1399,60.1452 C8.2739,60.4452 8.5859,60.6262 8.9129,60.5912 C9.6879,60.5092 12.3819,59.7932 12.7959,60.7112 C13.2139,61.6402 10.8719,63.1682 10.2929,63.6902 C9.1109,64.7612 12.5949,67.8402 11.0019,68.3882 C9.8539,68.7832 8.5509,67.0902 7.3019,67.1482 C5.8009,67.2182 5.4959,68.5302 4.3679,69.0772 C3.9239,69.2932 3.2649,69.1302 3.1519,68.6492 C3.1269,68.5412 3.1309,68.4302 3.1429,68.3192" id="Fill-10" fill="#B1223B"></path>
                            </g>
                        </g>
                        <g id="Page-1" transform="translate(305.000000, 214.000000)">
                            <mask id="mask-4" fill="white">
                                <use xlink:href="#path-3"></use>
                            </mask>
                            <g id="Clip-2"></g>
                            <path d="M15.994109,21.9921955 C14.6982872,21.9945969 13.4033732,21.9975986 12.107854,22 C11.8388242,21.9642794 11.5697944,21.9279584 11.3010672,21.8916374 C11.0849961,21.870025 10.8689249,21.8484125 10.6531563,21.8268 C10.4924647,21.790479 10.332681,21.7547584 10.1719894,21.7184375 C8.28878084,21.4314718 6.65765529,20.6243058 5.4235681,19.1990831 C4.66580588,18.3243782 4.09112918,17.2953842 3.43565275,16.3348297 C3.42082434,16.3132172 3.4202191,16.2828997 3.40690379,16.2612872 C1.85294652,13.7467356 1.69649162,10.9227054 1.44380334,8.09177116 C1.35180665,7.05467247 0.763209393,6.06109891 0.4006698,5.04741373 C0.266608832,4.72953023 0.133153106,4.41254724 0,4.09466374 C0.00302620695,4.04063255 0.0063550346,3.98570084 0.00877600016,3.93136947 C0.27841104,3.98179858 0.547440838,4.03192752 0.817075877,4.08235663 C1.4096072,4.24475038 2.00123066,4.40714412 2.59376198,4.56863735 C2.79318902,4.61666507 2.99382654,4.66439263 3.19325358,4.71332087 C3.46742793,4.70011325 3.74220752,4.68690562 4.01638187,4.67309765 C4.18705994,4.64127928 4.35864587,4.60886057 4.52932395,4.5770422 C4.63614905,4.56173336 4.74297416,4.54702487 4.84979926,4.53141586 C5.11882906,4.47048069 5.38785886,4.40864499 5.65658604,4.34740964 C6.1985797,4.36151779 6.73936288,4.37442524 7.28075131,4.38853338 C7.38576069,4.43566059 7.49016483,4.48218744 7.59487159,4.52931465 C9.50561866,5.23292082 10.2984849,6.87546902 10.9709081,8.57114789 C11.4263522,9.71961087 12.0016342,10.7191879 13.1945649,11.3156322 C13.2702201,11.2333847 13.3761373,11.1538388 13.4369641,11.0472773 C14.7155365,8.80318184 16.1242359,6.61852069 17.216394,4.28857568 C17.9726431,2.67634498 19.2245849,1.55970037 20.3394395,0.285464791 C20.4390018,0.171098771 20.6021143,0.109863421 20.7721871,0 C22.4257066,4.46027479 23.3335687,8.86111528 19.9690318,13.257153 C21.2297496,13.1451884 22.25866,13.0863544 23.2736498,12.9347669 C23.4649061,12.9068508 23.665241,12.5334352 23.7499748,12.2821902 C24.3800311,10.4223165 24.9801279,8.55343767 25.595961,6.68906141 C25.6171445,6.62542468 25.7091412,6.58460111 25.8501624,6.46092972 C26.9169004,7.4250863 27.9863619,8.39164427 29.0552182,9.35910275 C29.111203,9.41163308 29.1674905,9.46506392 29.2228701,9.51759425 C29.3293925,9.62055368 29.4362176,9.72321295 29.5430428,9.82617238 C29.695261,10.0062764 29.8471765,10.1872808 30,10.3691858 C28.8633567,11.5752821 27.7424496,12.7660695 26.6221478,13.9562566 C26.0780358,14.6397511 25.534529,15.3226453 24.990417,16.0061399 C24.1312769,16.9690958 23.3226744,17.9818804 22.3960498,18.8751961 C21.8041237,19.4458255 21.0372829,19.836351 20.3527549,20.3133263 C20.1203422,20.4751197 19.9006395,20.6543232 19.6751871,20.8254219 C18.7685355,21.1748236 17.8627918,21.5251259 16.9567454,21.8745276 C16.6356649,21.9132499 16.3151895,21.9528728 15.994109,21.9921955 M6.63193254,8.58975863 C6.85556923,8.24005676 7.11279682,8.01222524 7.07406137,7.85583496 C7.02261585,7.64691436 6.75449392,7.37495736 6.55476426,7.35394523 C6.3989146,7.33773587 6.05574273,7.67272926 6.06754494,7.83272162 C6.08237335,8.04854621 6.35836343,8.24545988 6.63193254,8.58975863" id="Fill-1" fill="#1C4786" mask="url(#mask-4)"></path>
                        </g>
                        <polygon id="Fill-1" fill="#FFD900" points="51 41.3978625 61 48 60.6882683 40.8150837 53.5685908 38"></polygon>
                        <polygon id="Fill-2" fill="#00B1DD" points="350 97.5157743 353.456864 101 361 95.5079322 359.618036 90"></polygon>
                        <polygon id="Fill-3" fill="#B1223B" points="120 4.91145794 126.747899 13 131 10.7798454 125.281691 0"></polygon>
                        <polygon id="Fill-4" fill="#00B1DD" points="234 14.5295995 226.600071 13 223 18.5993906 232.000178 20"></polygon>
                        <polygon id="Fill-4-Copy" fill="#00B1DD" points="56 173.5296 48.6000712 172 45 177.599391 54.0001781 179"></polygon>
                    </g>
                </g>
            </g>
        </g>
    </g>
</svg>