<?xml version="1.0" encoding="UTF-8"?>
<svg width="338px" height="434px" viewBox="0 0 338 434" version="1.1" xmlns="http://www.w3.org/2000/svg" xmlns:xlink="http://www.w3.org/1999/xlink">
    <!-- Generator: Sketch 46.2 (44496) - http://www.bohemiancoding.com/sketch -->
    <title>Get-involved Copy</title>
    <desc>Created with Sketch.</desc>
    <defs></defs>
    <g id="Supporting-someone-struggling-with-debt" stroke="none" stroke-width="1" fill="none" fill-rule="evenodd">
        <g id="Group-11" transform="translate(-674.000000, -2805.000000)">
            <g id="Get-involved-Copy" transform="translate(889.574544, 3014.661733) rotate(44.000000) translate(-889.574544, -3014.661733) translate(653.074544, 2855.661733)">
                <path d="M188.73,73.903 C188.73,73.903 188.211,82.079 188.586,85.665 C188.883,88.512 189.555,94.243 190.504,96.044 C192.641,100.122 197.82,103.45 197.82,103.45 C197.82,103.45 204.242,104.946 208.367,100.157 C212.5,95.36 213.738,89.411 213.738,89.411 L215.594,79.044 L188.73,73.903 Z" id="Fill-2" fill="#080B17"></path>
                <path d="M188.887,49.712 L186.801,63.231 L188.027,73.341 L190.137,83.825 C190.137,83.825 196.656,87.782 200.738,88.716 C204.949,89.676 207.457,90.302 210.914,87.692 C214.367,85.091 218.055,82.309 218.055,82.309 L222.016,70.259 L225.172,57.493 L188.887,49.712 Z" id="Fill-3" fill="#E4583F"></path>
                <path d="M145.094,73.743 C145.094,73.743 144.543,84.2 146.461,88.387 C148.383,92.567 153.371,96.173 153.371,96.173 C153.371,96.173 159.703,98.009 164.082,93.45 C168.461,88.884 170.023,83.012 170.023,83.012 L172.438,72.755 L145.094,73.743 Z" id="Fill-4" fill="#080B17"></path>
                <path d="M140.168,35.837 L139.383,40.852 L140.242,53.305 L143.629,79.001 C143.629,79.001 149.93,83.305 153.957,84.458 C158.113,85.645 160.578,86.399 164.172,83.985 C167.762,81.563 171.59,78.985 171.59,78.985 L176.191,67.169 L179.375,43.204 L140.168,35.837 Z" id="Fill-5" fill="#E4583F"></path>
                <path d="M107.785,103.669 C107.785,103.669 114.086,108.911 117.203,110.723 C119.676,112.161 124.699,114.997 126.715,115.294 C131.266,115.969 137.008,113.751 137.008,113.751 C137.008,113.751 142.004,109.446 140.566,103.29 C139.129,97.126 135.055,92.614 135.055,92.614 L127.777,85.005 L107.785,103.669 Z" id="Fill-6" fill="#080B17"></path>
                <path d="M88.34,89.286 L98.027,98.938 L106.914,103.911 L116.625,108.387 C116.625,108.387 123.668,105.454 126.828,102.708 C130.09,99.872 132.07,98.216 132.004,93.887 C131.938,89.559 131.863,84.942 131.863,84.942 L124.465,74.637 L110.172,58.778 L88.34,89.286 Z" id="Fill-7" fill="#65A68E"></path>
                <path d="M85.918,140.786 C85.918,140.786 94.043,147.395 98.555,148.313 C103.066,149.227 108.918,147.325 108.918,147.325 C108.918,147.325 114.137,143.29 113.031,137.067 C111.93,130.837 108.105,126.114 108.105,126.114 L101.242,118.118 L85.918,140.786 Z" id="Fill-8" fill="#080B17"></path>
                <path d="M48.406,120.454 L51.996,124.048 L62.559,130.692 L85.312,143.106 C85.312,143.106 92.504,140.555 95.809,137.981 C99.219,135.325 101.281,133.778 101.449,129.454 C101.609,125.126 101.789,120.516 101.789,120.516 L94.953,109.829 L77.473,93.13 L48.406,120.454 Z" id="Fill-9" fill="#65A68E"></path>
                <path d="M74.191,181.309 C74.191,181.309 81.723,178.083 84.754,176.13 C87.16,174.583 91.973,171.399 93.156,169.739 C95.828,165.993 96.461,159.872 96.461,159.872 C96.461,159.872 94.898,153.466 88.762,151.942 C82.621,150.419 76.75,151.997 76.75,151.997 L66.664,155.016 L74.191,181.309 Z" id="Fill-10" fill="#080B17"></path>
                <path d="M52.535,192.087 L65.539,187.848 L74.012,182.196 L82.414,175.579 C82.414,175.579 83.004,167.977 81.996,163.911 C80.953,159.719 80.383,157.2 76.492,155.29 C72.605,153.387 68.461,151.348 68.461,151.348 L55.926,153.251 L35.297,158.766 L52.535,192.087 Z" id="Fill-11" fill="#4E87BC"></path>
                <path d="M95.18,219.833 C95.18,219.833 104.762,215.602 107.633,212.005 C110.496,208.403 111.465,202.325 111.465,202.325 C111.465,202.325 110.246,195.844 104.203,193.997 C98.152,192.145 92.207,193.403 92.207,193.403 L81.965,195.876 L95.18,219.833 Z" id="Fill-12" fill="#080B17"></path>
                <path d="M62.133,241.825 L66.965,240.262 L77.688,233.88 L99.094,219.259 C99.094,219.259 100.09,211.696 99.301,207.583 C98.484,203.337 98.051,200.794 94.27,198.68 C90.492,196.567 86.465,194.313 86.465,194.313 L73.84,195.54 L51.02,203.509 L62.133,241.825 Z" id="Fill-13" fill="#4E87BC"></path>
                <path d="M135.965,234.63 C135.965,234.63 137.887,226.669 138.137,223.067 C138.332,220.216 138.664,214.454 138.039,212.516 C136.637,208.134 132.109,203.962 132.109,203.962 C132.109,203.962 126.043,201.38 121.152,205.384 C116.258,209.395 114.008,215.044 114.008,215.044 L110.395,224.93 L135.965,234.63 Z" id="Fill-14" fill="#080B17"></path>
                <path d="M131.641,258.43 L136.027,245.477 L136.566,235.305 L136.293,224.614 C136.293,224.614 130.555,219.594 126.695,217.966 C122.711,216.294 120.352,215.243 116.492,217.219 C112.645,219.188 108.531,221.29 108.531,221.29 L102.551,232.473 L94.625,252.302 L131.641,258.43 Z" id="Fill-15" fill="#E3995E"></path>
                <path d="M179.387,240.864 C179.387,240.864 181.734,230.657 180.566,226.204 C179.398,221.755 175.105,217.344 175.105,217.344 C175.105,217.344 169.188,214.442 164.086,218.176 C158.984,221.919 156.434,227.434 156.434,227.434 L152.285,237.118 L179.387,240.864 Z" id="Fill-16" fill="#080B17"></path>
                <path d="M177.227,280.505 L178.871,275.7 L180.172,263.29 L181.27,237.391 C181.27,237.391 175.805,232.067 172.039,230.235 C168.148,228.352 165.852,227.176 161.898,228.938 C157.945,230.704 153.727,232.579 153.727,232.579 L147.152,243.426 L139.883,266.481 L177.227,280.505 Z" id="Fill-17" fill="#E3995E"></path>
                <path d="M239.496,144.415 C239.496,144.415 231.438,145.876 228.047,147.102 C225.355,148.071 219.953,150.102 218.434,151.454 C214.988,154.512 213.004,160.337 213.004,160.337 C213.004,160.337 213.098,166.93 218.738,169.782 C224.387,172.641 230.461,172.411 230.461,172.411 L240.969,171.723 L239.496,144.415 Z" id="Fill-22" fill="#080B17"></path>
                <path d="M274.324,136.602 L249.395,139.969 L239.875,143.587 L230.207,148.161 C230.207,148.161 227.93,155.438 228.008,159.626 C228.09,163.946 228.082,166.532 231.445,169.259 C234.805,171.985 238.391,174.895 238.391,174.895 L251.035,175.841 L272.375,175.071 L274.324,136.602 Z" id="Fill-23" fill="#EDCFB3"></path>
                <path d="M227.645,102.176 C227.645,102.176 217.359,104.157 213.754,107.024 C210.16,109.895 207.859,115.602 207.859,115.602 C207.859,115.602 207.598,122.192 213.078,125.341 C218.562,128.497 224.641,128.598 224.641,128.598 L235.172,128.477 L227.645,102.176 Z" id="Fill-24" fill="#080B17"></path>
                <path d="M264.77,88.122 L259.711,88.563 L247.832,92.391 L223.703,101.86 C223.703,101.86 221.043,109.009 220.891,113.196 C220.742,117.512 220.598,120.091 223.809,122.997 C227.016,125.895 230.441,128.997 230.441,128.997 L243.02,130.622 L267.043,127.95 L264.77,88.122 Z" id="Fill-25" fill="#EDCFB3"></path>
                <path d="M6.816,186.278 C6.816,186.278 -2.367,145.798 1.254,128.622 C4.875,111.442 15.707,94.087 15.707,94.087 L31.863,89.446 L37.008,95.469 L26.039,141.77 L54.867,175.153 L67.004,231.294 L87.219,269.731 L108.477,288.446 L99.008,303.274 C99.008,303.274 63.789,286.778 49.828,274.481 C35.871,262.184 26.004,233.821 26.004,233.821 L6.816,198.208 L6.816,186.278 Z" id="Fill-26" fill="#E4583F"></path>
                <path d="M18.203,93.368 L37.012,95.469 L39.441,80.337 L42.043,66.255 L29.352,70.512 C29.352,70.512 23.715,74.899 21.047,80.337 C18.379,85.778 18.203,93.368 18.203,93.368" id="Fill-27" fill="#9A4B24"></path>
                <path d="M74.16,34.739 L80.984,45.012 L48.859,58.106 L52.543,46.446 C52.543,46.446 56.059,41.7 61.398,39.489 C66.742,37.278 74.16,34.739 74.16,34.739" id="Fill-28" fill="#F6B4B0"></path>
                <path d="M5.32,158.176 C5.32,158.176 2.527,162.782 1.254,169.235 C-0.023,175.684 1.254,189.313 1.254,189.313 L6.816,198.208 L14.199,181.219 L21.414,164.95 L5.32,158.176 Z" id="Fill-29" fill="#F6B4B0"></path>
                <polygon id="Fill-39-Copy" fill="#F1856C" transform="translate(273.377921, 179.712164) scale(-1, 1) rotate(125.000000) translate(-273.377921, -179.712164) " points="266.256421 190.319164 269.370421 177.858164 273.026421 166.741164 278.053421 169.030164 280.499421 182.308164 278.053421 192.683164"></polygon>
                <polygon id="Fill-30" fill="#FFDA00" points="216.898 56.165 251.109 95.997 266.586 127.02 268.141 150.61 266.281 175.634766 276.101562 182.322266 293.373047 177.769531 300.168 160.796875 310.648 124.442 300.168 86.134 266.281 61.098 230.121 46.446"></polygon>
                <path d="M275.34,95.567 C270.258,96.216 261.516,99.942 257.426,103.028 C253.641,105.88 248.406,114.665 247.793,119.368 C247,125.485 250.551,138.36 254.473,143.122 C258.105,147.532 269.18,153.079 274.883,153.403 C280.359,153.716 291.375,149.454 295.484,145.817 C298.699,142.966 304.352,135.86 305.227,131.653 C306.305,126.485 302.949,115.895 301.18,110.919 C299.82,107.102 295.188,99.704 291.57,97.876 C288.375,96.262 278.891,95.114 275.34,95.567" id="Fill-31" fill="#01031B"></path>
                <polygon id="Fill-34" fill="#F6B4B0" points="137.949 9.407 155.727 0.321 169.406 0.321 178.309 5.958"></polygon>
                <polygon id="Fill-35" fill="#EAB460" points="134.098 9.407 147.961 4.29 158.129 7.844"></polygon>
                <path d="M178.309,5.958 C166.145,5.067 148.434,8.751 148.434,8.751 C148.434,8.751 136.176,8.333 121.93,10.407 C107.691,12.485 93.152,19.903 93.152,19.903 L74.16,34.739 L86.328,57.587 L129.945,34.739 L150.418,40.676 L176.293,46.446 L221.926,58.106 L243.293,66.493 L285.129,84.134 L292.582,66.255 L269.109,46.446 L236.012,25.942 L205.609,13.969 C205.609,13.969 190.473,6.848 178.309,5.958" id="Fill-36" fill="#4E87BC"></path>
                <path d="M52.5,53.169 C54.016,49.719 84.707,35.555 84.707,35.555 L111.547,34.739 L129.941,34.739 L146.113,39.426 L127.273,43.938 L102.914,70.512 L74.594,95.469 L54.867,119.009 L40.199,135.923 L24.016,166.048 L4.105,158.176 C4.105,158.176 14.703,128.114 14.195,126.594 C13.691,125.079 30.062,83.606 30.062,83.606 L52.5,53.169 Z" id="Fill-37" fill="#E3995E"></path>
                <polygon id="Fill-38" fill="#F6B4B0" points="286.004 82.036 292.582 85.18 299.301 92.973 303.434 98.055 306.645 92.083 305.438 80.731 299.074 72.052 291.82 68.083"></polygon>
                <polygon id="Fill-39-Copy" fill="#F1856C" transform="translate(447.786161, 214.784876) rotate(-59.000000) translate(-447.786161, -214.784876) " points="440.664661 225.391876 443.778661 212.930876 447.434661 201.813876 452.461661 204.102876 454.907661 217.380876 452.461661 227.755876"></polygon>
                <g id="Group-10" transform="translate(394.845152, 252.475522) rotate(11.000000) translate(-394.845152, -252.475522) translate(325.845152, 199.475522)">
                    <path d="M70.27,44.227 C70.27,44.227 64.582,38.333 61.68,36.192 C59.375,34.493 54.695,31.126 52.723,30.61 C48.273,29.442 42.324,31.024 42.324,31.024 C42.324,31.024 36.887,34.759 37.645,41.036 C38.402,47.317 41.961,52.247 41.961,52.247 L48.367,60.602 L70.27,44.227 Z" id="Fill-18" fill="#080B17"></path>
                    <path d="M96.09,68.868 L79.457,49.997 L71.164,44.083 L61.996,38.575 C61.996,38.575 54.68,40.723 51.234,43.11 C47.688,45.575 45.531,47.001 45.129,51.317 C44.73,55.622 44.293,60.223 44.293,60.223 L50.527,71.266 L63.004,88.591 L96.09,68.868 Z" id="Fill-19" fill="#126061"></path>
                    <path d="M98.832,10.93 C98.832,10.93 91.477,3.473 87.094,2.067 C82.711,0.669 76.684,1.923 76.684,1.923 C76.684,1.923 71.059,5.36 71.477,11.665 C71.895,17.981 75.184,23.094 75.184,23.094 L81.129,31.79 L98.832,10.93 Z" id="Fill-20" fill="#080B17"></path>
                    <path d="M131.125,34.016 L127.949,30.055 L118.176,22.298 L96.906,7.477 C96.906,7.477 89.48,9.231 85.918,11.426 C82.238,13.7 80.02,15.009 79.383,19.29 C78.746,23.571 78.07,28.137 78.07,28.137 L83.699,39.505 L99.254,58.009 L131.125,34.016 Z" id="Fill-21" fill="#126061"></path>
                    <path d="M27.156,99.446 L77.848,96.723 C77.848,96.723 109.745671,74.8060577 118.424671,63.0130577 C127.104671,51.2200577 130.415548,49.5055871 135.310548,35.4855871 C140.208548,21.4665871 135.390306,11.6774778 132.04011,7.65691881 L122.299147,0.883319739 L111.313358,3.01874072 L95.793,31.044 L61.52,62.68 L22.8929586,88.8121174 L27.156,99.446 Z" id="Fill-32" fill="#65A68E"></path>
                    <path d="M77.855,14.204 C74.402,16.337 67.703,21.505 65.816,25.094 C64.281,28.016 63.832,34.891 64.07,38.184 C64.406,42.782 66.102,52.434 69.129,55.915 C71.852,59.048 80.168,62.317 84.301,62.641 C89,63.012 95.957,63.13 104.777,59.993 C113.598,56.86 117.32,49.895 119.445,45.329 C121.523,40.852 120.84,28.946 119.992,24.083 C119.242,19.782 111.098,11.219 107.305,9.059 C103.383,6.829 93.691,8.227 89.258,9.059 C85.781,9.716 80.863,12.344 77.855,14.204" id="Fill-33" fill="#01031B"></path>
                    <polygon id="Fill-39" fill="#F1856C" transform="translate(14.096292, 96.965195) scale(-1, 1) rotate(96.000000) translate(-14.096292, -96.965195) " points="6.97479195 107.572195 10.0887919 95.1111953 13.7447919 83.9941953 18.7717919 86.2831953 21.2177919 99.5611953 18.7717919 109.936195"></polygon>
                </g>
                <path d="M68.945,234.977 L86.328,245.641 L117.578,255.649 L150.863,262.774 L190.922,270.684 L261.729492,290.493164 L256.646484,303.274 L222.150391,300.375 L198.488,303.274 C198.488,303.274 176.473,313.493 165.105,312.176 C153.738,310.86 134.395,308.618 134.395,308.618 L108.477,288.446 L87.219,269.731 L72.117,243.634 L68.945,234.977 Z" id="Fill-40" fill="#EDC6D8"></path>
                <path d="M261.249922,290.343213 C261.31541,290.161554 263.265063,290.831552 263.265063,290.831552 L268.149255,292.235746 L273.75638,290.172817 L279.106384,289 L283.196843,289 C283.196843,289 283.850429,290.810795 282.986222,291.881279 C282.122016,292.951601 280.322645,293.837208 280.322645,293.837208 C280.322645,293.837208 277.944186,294.930217 278.513619,295.499651 C279.083214,296.069084 284.267166,296.082278 284.267166,296.082278 L284.779479,296.021296 C284.779479,296.021296 288.393507,295.83835 289.746052,296.605211 C291.098598,297.372072 290.701491,300.539113 290.701491,300.539113 C290.701491,300.539113 290.873012,303.623933 290.090544,305.117911 C289.307915,306.61189 284.213746,308.608688 284.213746,308.608688 C284.213746,308.608688 279.772037,309.645865 276.176191,309.574746 C272.579218,309.503144 264.180759,306.033768 264.180759,306.033768 L256,303.680571 L261.249922,290.343213 Z" id="Fill-6" fill="#F3988C"></path>
                <polygon id="Fill-41" fill="#9A4B24" points="99.773 302.083 107.02 307.282 118.371 310.173 127.719 310.173 134.395 308.618 121.266 296.821 108.477 288.446"></polygon>
                <path d="M41.852,169.333 C36.773,169.981 28.031,173.708 23.941,176.794 C20.152,179.645 14.918,188.43 14.309,193.134 C13.516,199.251 17.066,212.126 20.988,216.884 C24.621,221.294 35.691,226.841 41.395,227.169 C46.875,227.477 57.891,223.219 62,219.579 C65.215,216.731 70.867,209.626 71.742,205.419 C72.82,200.247 69.465,189.657 67.695,184.68 C66.336,180.868 61.703,173.466 58.086,171.641 C54.891,170.028 45.402,168.88 41.852,169.333" id="Fill-43" fill="#01031B"></path>
                <path d="M50.289,66.204 C47.953,69.52 43.816,76.899 43.492,80.95 C43.227,84.239 45.516,90.735 47.027,93.669 C49.141,97.766 56.785,103.848 60.938,105.86 C64.668,107.673 75.77,108.044 79.699,106.719 C84.16,105.212 92.551,98.766 93.027,97.751 C93.508,96.731 100.602,83.536 100.762,78.501 C100.914,73.571 95.609,62.887 92.926,58.747 C90.547,55.087 80.953,53.755 76.613,53.259 C72.133,52.747 62.512,54.489 58.762,56.997 C55.816,58.962 52.328,63.309 50.289,66.204" id="Fill-44" fill="#01031B"></path>
                <path d="M177.734,18.145 C173.5,18.977 163.438,23.993 161.488,23.993 C159.539,23.993 153.918,36.243 153.688,40.891 C153.488,45.063 155.371,53.598 157.59,57.137 C160.043,61.048 167.535,67.282 171.887,68.837 C176.016,70.309 187.191,71.173 191.379,69.876 C194.676,68.856 201.805,65.274 204.055,62.661 C207.824,58.282 210.75,46.016 210.879,40.243 C210.98,35.618 208.305,25.958 205.031,22.696 C202.043,19.716 192.961,18.719 188.785,18.145 C186.047,17.77 180.445,17.614 177.734,18.145" id="Fill-45" fill="#01031B"></path>
                <path d="M148.113,245.962 C143.457,244.981 133.496,246.384 129.238,248.52 C124.496,250.895 116.383,258.751 114.375,263.661 C112.75,267.641 112.273,277.106 114.375,280.86 C117.102,285.735 126.477,295.001 131.746,296.864 C138.109,299.118 153.922,298.512 160.211,296.052 C166.043,293.77 175.555,283.036 176.254,276.813 C176.824,271.731 171.359,261.946 167.992,258.098 C164.156,253.719 153.812,247.153 148.113,245.962" id="Fill-46" fill="#01031B"></path>
            </g>
        </g>
    </g>
</svg>