<?xml version="1.0" encoding="UTF-8"?>
<svg width="391px" height="381px" viewBox="0 0 391 381" version="1.1" xmlns="http://www.w3.org/2000/svg" xmlns:xlink="http://www.w3.org/1999/xlink">
    <!-- Generator: Sketch 46.2 (44496) - http://www.bohemiancoding.com/sketch -->
    <title>after</title>
    <desc>Created with Sketch.</desc>
    <defs>
        <polygon id="path-1" points="29.8068876 0.507697479 0.0850060264 0.507697479 0.0850060264 18.3608674 29.8068876 18.3608674"></polygon>
        <polygon id="path-3" points="0.557184045 16.1648961 21.8330085 16.1648961 21.8330085 0.271270905 0.557184045 0.271270905"></polygon>
        <polygon id="path-5" points="0.471229329 16.1648961 21.7470538 16.1648961 21.7470538 0.271270905 0.471229329 0.271270905 0.471229329 16.1648961"></polygon>
        <polygon id="path-7" points="10.1321 0.671 0.3301 0.671 0.3301 12.1069 10.1321 12.1069 10.1321 0.671"></polygon>
        <polygon id="path-9" points="0 22 0 0 30 0 30 22"></polygon>
    </defs>
    <g id="Page-1" stroke="none" stroke-width="1" fill="none" fill-rule="evenodd">
        <g id="Group-11" transform="translate(-687.000000, -216.000000)">
            <g id="after" transform="translate(687.000000, 216.000000)">
                <g id="holding-hands" transform="translate(24.000000, 83.000000)">
                    <circle id="Oval" fill="#FFFFFF" cx="168" cy="149" r="149"></circle>
                    <g id="Page-1" transform="translate(0.000000, 73.550354)">
                        <polygon id="Fill-1" fill="#833047" points="68.8453482 70 76.833605 82.6621442 92 142.488899 80.8307052 144.255308 59.6386445 98.3435671 37.8528138 145 26 143.123972 41.4713039 80.8617773 44.1102816 71.9957741"></polygon>
                        <g id="Group-86">
                            <path d="M162.898656,25.3663741 C162.898656,25.3663741 157.321059,23.8085571 155.439963,18.7746887 C155.3689,18.5831047 155.302613,18.3915208 155.248868,18.1993381 L156.35961,17.0252877 L162.319398,11.3262638 L167.616324,5.78829009 L173.522366,11.8477313 L177.403992,16.6373302 L179.625476,18.911791 C179.577702,19.0435049 179.523956,19.1686332 179.464239,19.3009459 C177.565825,23.4804696 173.522366,24.6587109 173.522366,24.6587109 L176.072893,33.2452642 L189.132472,35.3467007 C189.072755,30.10209 184.868656,25.3957104 184.868656,25.3957104 C184.868656,25.3957104 185.98537,20.6061116 185.238903,17.0139124 C184.492437,13.4217133 183.29809,11.1053435 183.29809,11.1053435 C183.29809,11.1053435 181.428939,7.88373959 178.520705,4.8902403 C175.612472,1.89674102 172.399681,0.927445949 167.025122,0.771783986 C161.650564,0.62809602 158.139186,3.46593334 158.139186,3.46593334 C158.139186,3.46593334 155.535511,6.07566602 153.917172,10.2013067 C153.618585,10.9670439 153.349857,11.7812757 153.140847,12.6440022 C151.797207,18.1574291 152.173426,23.3002609 153.063214,27.19181 C153.958974,31.0833591 156.56862,34.0535091 156.56862,34.0535091 L160.522504,33.2452642 L162.898656,25.3663741 Z" id="Fill-3" fill="#FFDA00"></path>
                            <polygon id="Fill-5" fill="#E3995E" points="221.4817 59.5402218 221.4817 50.320244 191.371633 35.7053818 189.132233 35.3467606 176.072654 33.2453241 176.066085 33.2453241 160.522265 33.2453241 156.568979 34.0535689 147.288908 35.9514475 117.925905 48.2780788 120.195163 58.1626135 152.484314 50.3010857 154.801346 62.2637075 149.223749 81.9842821 188.314703 82.6380623 181.165943 62.2637075 184.701208 49.8287115"></polygon>
                            <path d="M179.464418,19.3010656 C179.524135,19.1687529 179.577284,19.0436247 179.625655,18.9119107 L177.404171,16.6374499 L173.522545,11.8478511 L167.616503,5.78840983 L162.319577,11.3263835 L156.359789,17.0254075 L155.249047,18.1994579 C155.302793,18.3910418 155.368482,18.5832245 155.440142,18.7748084 C157.321238,23.8086768 162.898835,25.3664939 162.898835,25.3664939 L160.522086,33.245384 C160.522086,33.245384 163.964789,35.2683908 168.443588,35.3468205 C172.922386,35.4240528 176.066503,33.245384 176.066503,33.245384 L176.072475,33.245384 L173.522545,24.6588306 C173.522545,24.6588306 177.565407,23.4799906 179.464418,19.3010656" id="Fill-7" fill="#F6B7AE"></path>
                            <path d="M163.920957,14.6283928 C163.920957,15.1720123 163.48084,15.6138528 162.937412,15.6138528 C162.393388,15.6138528 161.953271,15.1720123 161.953271,14.6283928 C161.953271,14.083576 162.393388,13.6417355 162.937412,13.6417355 C163.48084,13.6417355 163.920957,14.083576 163.920957,14.6283928" id="Fill-9" fill="#32303E"></path>
                            <path d="M172.717616,14.7441215 C172.717616,15.2889384 172.277499,15.7295815 171.734071,15.7295815 C171.190047,15.7295815 170.74993,15.2889384 170.74993,14.7441215 C170.74993,14.1993046 171.190047,13.7586616 171.734071,13.7586616 C172.277499,13.7586616 172.717616,14.1993046 172.717616,14.7441215" id="Fill-11" fill="#32303E"></path>
                            <path d="M165.542222,19.5021689 L169.692575,19.5021689 C169.692575,19.5021689 169.565975,21.6688637 167.448399,21.6137833 C166.058777,21.5754665 165.542222,19.5021689 165.542222,19.5021689" id="Fill-13" fill="#DD4E32"></path>
                            <polygon id="Fill-15" fill="#F6B7AE" points="179.063775 69.9145528 187.089782 82.6393196 202.522527 143.400171 190.6137 145.285477 169.813563 103.120243 148.836661 144.537102 137.614584 142.761957 151.560368 80.8300486 154.211817 71.9201974"></polygon>
                            <path d="M154.79836,62.2659227 L136.115799,114.52344 C136.115799,114.52344 150.334491,115.965109 154.79836,119.749491 C159.26223,123.534471 171.803463,121.731187 176.779707,119.749491 C181.755951,117.768393 188.013131,120.718786 193.145237,118.792768 C198.277343,116.866751 204.846247,109.118976 204.846247,109.118976 L181.164152,62.2659227 L154.79836,62.2659227 Z" id="Fill-17" fill="#4E87BC"></path>
                            <path d="M283.163773,25.4318719 L286.113212,35.3888492 L268.085152,35.3888492 L270.837523,26.2586764 C270.837523,26.2586764 274.158402,26.9705305 276.76148,26.8921008 C279.365752,26.8154673 283.163773,25.4318719 283.163773,25.4318719" id="Fill-19" fill="#F1856C"></path>
                            <path d="M280.064146,10.2784193 C285.707433,12.4756478 288.448457,12.0745189 288.448457,12.0745189 L289.248669,15.612835 C289.248669,15.612835 287.427291,19.4085921 285.414818,19.9300597 C283.402344,20.4563169 279.443086,18.3608674 279.443086,18.3608674 L276.761779,17.4628176 L274.235736,17.8346102 C274.235736,17.8346102 270.634782,19.857617 268.174429,19.9300597 C265.708104,20.007292 263.367185,18.3608674 263.367185,18.3608674 L264.364464,13.0743476 C264.364464,13.0743476 267.845984,12.1762978 269.918175,9.87729038 C271.912733,7.6626996 272.575595,5.81271704 272.617397,5.69237837 C272.617397,5.69237837 274.414888,8.0811908 280.064146,10.2784193" id="Fill-21" fill="#F1856C"></path>
                            <g id="Group-25" transform="translate(261.367491, 0.000000)">
                                <mask id="mask-2" fill="white">
                                    <use xlink:href="#path-1"></use>
                                </mask>
                                <g id="Clip-24"></g>
                                <path d="M27.0810258,12.0745189 C27.0810258,12.0745189 24.3400011,12.4756478 18.6967148,10.2784193 C13.0474569,8.0811908 11.2499657,5.69237837 11.2499657,5.69237837 C11.2081636,5.81271704 10.5453014,7.6626996 8.55074311,9.87729038 C6.4785523,12.1762978 2.99703286,13.0743476 2.99703286,13.0743476 L1.99975371,18.3608674 L0.739718375,18.3608674 C-1.26081166,12.6079604 1.7310258,6.93168708 4.239153,4.3219544 C6.63381731,1.819389 14.1402837,0.100521706 17.5620859,0.591455589 C20.1771071,0.9632482 25.5462908,3.60291587 27.1586583,5.70495107 C28.9919799,8.0811908 30.1863261,11.8290519 29.6966442,15.612835 L27.8812378,15.612835 L27.0810258,12.0745189 Z" id="Fill-23" fill="#833047" mask="url(#mask-2)"></path>
                            </g>
                            <path d="M290.048762,19.2238333 C287.84579,24.0673152 283.163953,25.4317521 283.163953,25.4317521 C283.163953,25.4317521 279.365334,26.8153475 276.761659,26.8925798 C274.158582,26.9704108 270.837702,26.2585567 270.837702,26.2585567 C270.837702,26.2585567 264.376288,24.4498844 262.196606,18.6125608 C262.167345,18.5293415 262.136889,18.4449248 262.10703,18.3611068 L263.367066,18.3611068 C263.367066,18.3611068 265.707984,20.0075314 268.17431,19.9302992 C270.634663,19.8578565 274.236214,17.8348497 274.236214,17.8348497 L276.761659,17.463057 L279.442967,18.3611068 C279.442967,18.3611068 283.402225,20.4565563 285.414698,19.9302992 C287.427172,19.4088316 289.24855,15.6130745 289.24855,15.6130745 L291.063956,15.6130745 C290.914663,16.8290339 290.586218,18.0437959 290.048762,19.2238333" id="Fill-26" fill="#833047"></path>
                            <path d="M272.615845,14.6283928 C272.615845,15.1720123 272.175728,15.6138528 271.6323,15.6138528 C271.088276,15.6138528 270.648159,15.1720123 270.648159,14.6283928 C270.648159,14.083576 271.088276,13.6417355 271.6323,13.6417355 C272.175728,13.6417355 272.615845,14.083576 272.615845,14.6283928" id="Fill-28" fill="#32303E"></path>
                            <path d="M281.412444,14.7441215 C281.412444,15.2889384 280.972327,15.7295815 280.4289,15.7295815 C279.884875,15.7295815 279.444758,15.2889384 279.444758,14.7441215 C279.444758,14.1993046 279.884875,13.7586616 280.4289,13.7586616 C280.972327,13.7586616 281.412444,14.1993046 281.412444,14.7441215" id="Fill-30" fill="#32303E"></path>
                            <path d="M274.23705,20.1008687 L278.387404,20.1008687 C278.387404,20.1008687 278.260803,22.2675635 276.143227,22.2124831 C274.753605,22.1741664 274.23705,20.1008687 274.23705,20.1008687" id="Fill-32" fill="#F6B7AE"></path>
                            <polygon id="Fill-34" fill="#0B6162" points="287.758603 69.9145528 295.78461 82.6393196 311.217355 143.400171 299.408854 145.285477 278.508391 103.120243 256.619009 145.285477 244.710182 143.400171 260.255196 80.8300486 262.906645 71.9201974"></polygon>
                            <polygon id="Fill-36" fill="#65A68E" points="330.178319 50.3223395 330.178319 59.5411199 293.39544 49.826616 297.010129 82.6395591 257.920369 81.9821866 261.179143 50.3001876 229.977443 58.772988 227.688478 48.9950219 255.984334 35.9475559 269.215899 33.2468209 284.762705 33.2468209 300.066461 35.7044838"></polygon>
                            <path d="M278.229511,40.6963833 C278.229511,41.508819 277.573218,42.1673889 276.763451,42.1673889 C275.953684,42.1673889 275.297391,41.508819 275.297391,40.6963833 C275.297391,39.8857437 275.953684,39.2277726 276.763451,39.2277726 C277.573218,39.2277726 278.229511,39.8857437 278.229511,40.6963833" id="Fill-38" fill="#EFD5BA"></path>
                            <path d="M278.307024,48.3554907 C278.307024,49.1679264 277.650134,49.8264963 276.841561,49.8264963 C276.0306,49.8264963 275.374904,49.1679264 275.374904,48.3554907 C275.374904,47.5448511 276.0306,46.88688 276.841561,46.88688 C277.650134,46.88688 278.307024,47.5448511 278.307024,48.3554907" id="Fill-40" fill="#EFD5BA"></path>
                            <path d="M278.307024,56.4005201 C278.307024,57.2129558 277.650134,57.8715256 276.841561,57.8715256 C276.0306,57.8715256 275.374904,57.2129558 275.374904,56.4005201 C275.374904,55.5898805 276.0306,54.9319093 276.841561,54.9319093 C277.650134,54.9319093 278.307024,55.5898805 278.307024,56.4005201" id="Fill-42" fill="#EFD5BA"></path>
                            <path d="M277.729677,65.3424616 C277.729677,66.1537 277.072787,66.8122698 276.263617,66.8122698 C275.453253,66.8122698 274.79696,66.1537 274.79696,65.3424616 C274.79696,64.5312233 275.453253,63.8726535 276.263617,63.8726535 C277.072787,63.8726535 277.729677,64.5312233 277.729677,65.3424616" id="Fill-44" fill="#EFD5BA"></path>
                            <path d="M66.0283336,10.155857 C66.0283336,10.155857 68.3961251,14.2066603 71.979164,15.9907859 C71.9672205,17.6012885 71.644747,19.2590884 70.9281392,20.8342677 C68.8499767,25.3897749 64.4559767,27.4397232 64.4559767,27.4397232 L67.2256657,34.2451445 L50.2599767,34.2451445 L52.1368919,27.9426311 C52.1368919,27.9426311 46.7724855,25.7489948 44.7241816,20.2589171 C44.4793406,19.6063343 44.3061604,18.9483632 44.1926975,18.3011686 C48.8267611,17.1277169 52.7412311,8.43459496 52.7412311,8.43459496 C52.7412311,8.43459496 56.2496233,10.9311734 58.9906481,11.7040949 C61.7316728,12.475819 66.0283336,10.155857 66.0283336,10.155857" id="Fill-46" fill="#9A4B24"></path>
                            <path d="M69.4947445,8.11189573 C70.9817057,10.0456963 72.0267587,12.9434036 71.9789848,15.9907859 C68.3959459,14.2066603 66.0281544,10.155857 66.0281544,10.155857 C66.0281544,10.155857 61.7314936,12.475819 58.9904689,11.7040949 C56.2494442,10.9311734 52.7410519,8.43459496 52.7410519,8.43459496 C52.7410519,8.43459496 48.8271792,17.1277169 44.1925184,18.3017673 C43.3511014,13.5061814 45.8287728,8.40525866 47.9314194,6.21401719 C50.1881367,3.86711375 57.2467233,2.24403843 60.4654866,2.70503732 C62.9324088,3.05827024 67.9779247,6.1415745 69.4947445,8.11189573" id="Fill-48" fill="#32303E"></path>
                            <path d="M54.3076163,17.4244924 C54.3076163,17.9681119 53.8674996,18.4099524 53.3240721,18.4099524 C52.7800473,18.4099524 52.3399307,17.9681119 52.3399307,17.4244924 C52.3399307,16.8796755 52.7800473,16.437835 53.3240721,16.437835 C53.8674996,16.437835 54.3076163,16.8796755 54.3076163,17.4244924" id="Fill-50" fill="#32303E"></path>
                            <path d="M63.1042753,17.5402211 C63.1042753,18.085038 62.6641587,18.5256811 62.1207311,18.5256811 C61.5767064,18.5256811 61.1365898,18.085038 61.1365898,17.5402211 C61.1365898,16.9954042 61.5767064,16.5547611 62.1207311,16.5547611 C62.6641587,16.5547611 63.1042753,16.9954042 63.1042753,17.5402211" id="Fill-52" fill="#32303E"></path>
                            <path d="M55.9288816,22.2982685 L60.079235,22.2982685 C60.079235,22.2982685 59.9526343,24.4649632 57.8350583,24.4098829 C56.4454364,24.3715661 55.9288816,22.2982685 55.9288816,22.2982685" id="Fill-54" fill="#F1856C"></path>
                            <path d="M118.380712,50.2591767 L115.034153,51.1769835 L113.97656,53.5849544 C113.97656,53.5849544 111.145362,58.249425 112.140849,59.2971497 C113.136337,60.3448745 113.675584,60.9483639 115.034153,60.6065063 C116.68474,60.1916073 118.757528,58.2751691 118.757528,58.2751691 L120.10057,57.7525041 L118.380712,50.2591767 Z" id="Fill-56" fill="#F6B7AE"></path>
                            <path d="M110.390486,52 C110.390486,52 114.537257,52.3496407 115.631875,53.6464246 C116.726493,54.9432085 118.193748,56.0783434 117.883815,57.9486818 C117.573285,59.8184214 116.2392,59.9525302 114.754628,60.3021709 C113.269458,60.6518116 110.390486,59.2334917 110.390486,59.2334917 L110.390486,52 Z" id="Fill-58" fill="#9A4B24"></path>
                            <path d="M115.033855,51.1771033 L113.540922,53.5204145 L113.540922,55.6194562 C113.540922,55.6194562 114.293957,55.7805065 114.99683,55.4811566 C115.365286,55.3236985 116.34047,53.908372 116.34047,53.908372 L117.509735,52.9857756 L115.033855,51.1771033 Z" id="Fill-60" fill="#F6B7AE"></path>
                            <path d="M227.987065,50.2591767 L224.640507,51.1769835 L223.582913,53.5849544 C223.582913,53.5849544 220.751715,58.249425 221.747203,59.2971497 C222.74269,60.3448745 223.281938,60.9483639 224.640507,60.6065063 C226.291093,60.1916073 228.363881,58.2751691 228.363881,58.2751691 L229.706924,57.7525041 L227.987065,50.2591767 Z" id="Fill-62" fill="#F1856C"></path>
                            <path d="M221.476445,51.4402319 C221.476445,51.4402319 225.623215,51.7898726 226.717833,53.0866565 C227.812452,54.3834404 229.279706,55.5185753 228.969773,57.3889137 C228.659243,59.2586533 227.325158,59.3927621 225.840586,59.7424028 C224.355416,60.0920435 221.476445,58.6737235 221.476445,58.6737235 L221.476445,51.4402319 Z" id="Fill-64" fill="#F6B7AE"></path>
                            <path d="M224.640208,51.1771033 L223.147275,53.5204145 L223.147275,55.6194562 C223.147275,55.6194562 223.900311,55.7805065 224.603183,55.4811566 C224.971639,55.3236985 225.946823,53.908372 225.946823,53.908372 L227.116088,52.9857756 L224.640208,51.1771033 Z" id="Fill-66" fill="#F1856C"></path>
                            <path d="M8.17802473,50 C8.17802473,50 3.9494417,50.6873074 2.2325689,51.8475878 C0.515696113,53.0072694 0.590342756,55.5146244 0.590342756,55.5146244 C0.590342756,55.5146244 0.403427562,57.6322258 1.56074912,58.4261018 C2.7174735,59.2187804 5.96490106,57.4603989 5.96490106,57.4603989 C5.96490106,57.4603989 4.77055477,59.331336 5.36772792,59.8551984 C5.96490106,60.3790607 10,57.9387601 10,57.9387601 L8.17802473,50 Z" id="Fill-68" fill="#9A4B24"></path>
                            <path d="M330.178319,50.7912412 C330.178319,50.7912412 334.881655,51.4390345 336.573447,52.0377343 C338.265238,52.6364342 338.862411,55.3305835 338.862411,55.3305835 C338.862411,55.3305835 338.563825,57.4601589 337.668065,57.7918387 C336.772305,58.1241171 334.24686,57.4655472 334.24686,57.4655472 C334.24686,57.4655472 335.82698,59.0269565 335.677687,59.6478082 C335.528394,60.2698574 330.178319,58.5743394 330.178319,58.5743394 L330.178319,50.7912412 Z" id="Fill-70" fill="#F1856C"></path>
                            <g id="Group-74" transform="translate(127.003534, 142.490566)">
                                <mask id="mask-4" fill="white">
                                    <use xlink:href="#path-3"></use>
                                </mask>
                                <g id="Clip-73"></g>
                                <path d="M10.6109307,0.271270905 L7.62506502,4.8902403 L3.29555972,9.08113931 C3.29555972,9.08113931 -1.03991731,13.4217133 1.19948198,15.2178128 C3.43888127,17.0139124 5.82757385,15.9661877 9.11202615,14.469438 C12.3964784,12.9726884 19.5685279,7.74424252 19.5685279,7.74424252 L21.8330085,2.04641598 L10.6109307,0.271270905 Z" id="Fill-72" fill="#DD4E32" mask="url(#mask-4)"></path>
                            </g>
                            <g id="Group-77" transform="translate(80.000000, 142.000000)">
                                <mask id="mask-6" fill="white">
                                    <use xlink:href="#path-5"></use>
                                </mask>
                                <g id="Clip-76"></g>
                                <path d="M11.6933071,0.271270905 L14.6791728,4.8902403 L19.0086781,9.08113931 C19.0086781,9.08113931 23.3441551,13.4217133 21.1047558,15.2178128 C18.8653565,17.0139124 16.476664,15.9661877 13.1922117,14.469438 C9.90775936,12.9726884 2.73570989,7.74424252 2.73570989,7.74424252 L0.471229329,2.04641598 L11.6933071,0.271270905 Z" id="Fill-75" fill="#4E87BC" mask="url(#mask-6)"></path>
                            </g>
                            <path d="M190.613581,145.285237 L193.674093,153.559269 L213.847199,153.559269 C213.847199,153.559269 215.233238,149.429438 212.739443,148.4799 C210.245648,147.530362 203.900683,146.557474 203.900683,146.557474 L202.522408,143.40053 L190.613581,145.285237 Z" id="Fill-78" fill="#DD4E32"></path>
                            <path d="M299.408734,145.285237 L302.469247,153.559269 L322.642353,153.559269 C322.642353,153.559269 324.028392,149.429438 321.534596,148.4799 C319.040801,147.530362 312.695837,146.557474 312.695837,146.557474 L311.317561,143.40053 L299.408734,145.285237 Z" id="Fill-80" fill="#FFDA00"></path>
                            <path d="M256.619308,145.285237 L253.558795,153.559269 L233.385689,153.559269 C233.385689,153.559269 231.999651,149.429438 234.493446,148.4799 C236.987241,147.530362 243.332205,146.557474 243.332205,146.557474 L244.710481,143.40053 L256.619308,145.285237 Z" id="Fill-82" fill="#FFDA00"></path>
                            <path d="M38,144.884707 L34.9394876,153.158739 L14.7663816,153.158739 C14.7663816,153.158739 13.3803428,149.028908 15.8741378,148.07937 C18.3679329,147.129832 24.7128975,146.156944 24.7128975,146.156944 L26.0911731,143 L38,144.884707 Z" id="Fill-84" fill="#4E87BC"></path>
                            <polygon id="Fill-2" fill="#F1856C" points="111 51.2854545 111 60.6175758 74.8493224 50.7836364 78.0098264 84 39.1298656 83.3345455 41.4796033 51.8157576 10.2564846 59.2224242 8 49.2139394 37.2042212 36.7339394 50.3647714 34 65.8281356 34 81.0497549 36.4878788"></polygon>
                        </g>
                    </g>
                </g>
                <path d="M23.0813898,105.623703 C22.9656285,105.906928 22.8493628,106.190404 22.7338537,106.473628 C22.6589494,106.636047 22.5842972,106.798466 22.5088884,106.960885 C22.4836681,107.012839 22.4581956,107.064793 22.4329753,107.11599 C21.931343,107.908665 21.4980578,108.755311 20.9152161,109.482918 C19.6514255,111.057927 17.9712474,111.991583 15.9541258,112.180484 C14.5773482,112.309864 13.1869517,112.294227 11.8018514,112.317682 C10.8026221,112.33458 9.96505507,111.842027 9.0919274,111.433457 C6.98678681,110.448352 5.40421138,108.925548 4.04231379,107.058235 C3.04005805,105.683475 1.77223228,104.501147 0.621681027,103.234077 C0.429502146,103.022983 0.227235134,102.819707 0,102.580619 C0.793179242,101.806103 1.55407647,101.06286 2.31421708,100.319617 C2.71622907,99.9965442 3.11849327,99.6744807 3.56615405,99.315091 C3.71419736,99.7082759 3.84282102,100.050011 3.97169688,100.391747 C4.00851856,100.480018 4.04559244,100.568289 4.08216191,100.656056 C4.25416453,101.150626 4.42566274,101.644945 4.59791757,102.139263 C4.69602464,102.449221 4.79463611,102.758422 4.89274318,103.067875 C5.15150372,103.623227 5.41001205,104.178831 5.66801599,104.734182 C6.50936605,104.823967 7.35021171,104.913499 8.19080516,105.003788 C8.21476447,104.944772 8.23821937,104.886261 8.26217868,104.827245 C8.08084454,104.588157 7.8997626,104.349068 7.71842846,104.110484 C7.37871067,103.317305 7.03823628,102.52463 6.69851849,101.731955 L6.63925073,101.459828 C6.6215965,100.209656 6.60419447,98.9597366 6.58654025,97.7103217 C6.65413072,97.3360521 6.72172119,96.9620346 6.78931166,96.5882694 C6.85362349,96.4707427 6.91793532,96.3537204 6.98300376,96.2361937 C6.99914477,96.1464093 7.01553798,96.0573816 7.0324356,95.9678494 C7.20317721,95.4213249 7.39106863,94.8795924 7.53961635,94.3280238 C7.64100206,93.9529976 7.80619519,93.910123 8.08815843,94.1454287 C8.11489198,94.2064619 8.1244757,94.2876713 8.16987229,94.3247452 C9.95799338,95.7554943 10.7993434,97.8429806 11.9271964,99.7284522 C12.5677927,100.800316 13.1544175,101.904714 13.7685324,102.992467 C13.8424279,103.123612 13.936752,103.242652 14.0583139,103.421969 C14.6820126,102.898899 15.3263919,102.513533 15.630549,101.710518 C15.9682492,100.819231 16.4002734,99.9498866 16.897366,99.1345135 C17.6882754,97.8369277 19.1071709,97.2997348 20.583821,97.6369306 C21.6254204,97.8740016 22.6478524,97.9839622 23.667258,97.5025062 C24.0538856,97.3204155 24.5007898,97.2639219 24.9999,97.2139857 C23.6861732,99.5476224 23.5333381,102.062089 23.5386343,104.606315 C23.4854194,104.722077 23.4322046,104.837586 23.3789897,104.953347 C23.3497341,105.033043 23.3204785,105.112992 23.2917273,105.19294 C23.2216148,105.336696 23.1515023,105.4802 23.0813898,105.623703 M19.550292,99.8452223 C19.3545823,100.116845 19.1485322,100.277246 19.1558461,100.426803 C19.1636644,100.585943 19.3747586,100.733987 19.4968249,100.887326 C19.6489035,100.740544 19.8821915,100.614442 19.9270837,100.440926 C19.9588613,100.315581 19.7386879,100.126681 19.550292,99.8452223" id="Fill-1" fill="#BE6E15"></path>
                <g id="Page-1" transform="translate(262.802819, 94.945048) rotate(35.000000) translate(-262.802819, -94.945048) translate(198.802819, 35.445048)">
                    <g id="Group-12" transform="translate(-0.000000, 0.329000)">
                        <path d="M120.5784,32.1947 C120.6044,32.2247 120.6304,32.2547 120.6554,32.2847 C122.5014,34.4767 123.2244,35.1797 126.0534,34.1247 C126.2214,34.0617 126.3954,33.9987 126.5744,34.0107 C127.0904,34.0487 127.3494,34.7267 127.1654,35.2107 C126.8304,36.0927 125.8124,36.4517 125.5154,37.4327 C125.2274,38.3787 128.0994,42.9877 126.2544,42.3787 L123.2614,41.3917 C122.9494,41.2887 122.6054,41.3987 122.4114,41.6637 C121.9504,42.2917 120.6674,44.7667 119.7094,44.4547 C118.7414,44.1387 119.1864,41.3787 119.1904,40.5987 C119.1934,39.0037 114.5714,39.5077 115.2384,37.9617 C115.7194,36.8467 117.8484,37.0217 118.6444,36.0597 C119.6034,34.9017 118.8384,33.7927 119.1924,32.5907 C119.3314,32.1167 119.8964,31.7397 120.3274,31.9797 C120.4244,32.0337 120.5044,32.1117 120.5784,32.1947" id="Fill-5" fill="#FFD900"></path>
                        <g id="Group-9" transform="translate(68.000000, 0.000000)">
                            <mask id="mask-8" fill="white">
                                <use xlink:href="#path-7"></use>
                            </mask>
                            <g id="Clip-8"></g>
                            <polygon id="Fill-7" fill="#05743C" mask="url(#mask-8)" points="10.1321 9.2479 6.0481 12.1069 0.3301 1.0799 6.0481 0.6709"></polygon>
                        </g>
                        <path d="M3.1429,116.3192 C3.1469,116.2792 3.1519,116.2402 3.1569,116.2012 C3.5369,113.3612 3.5689,112.3522 0.8859,110.9702 C0.7259,110.8882 0.5619,110.8022 0.4519,110.6612 C0.1319,110.2552 0.4589,109.6072 0.9409,109.4172 C1.8189,109.0712 2.7689,109.5832 3.6949,109.1432 C4.5879,108.7192 6.0649,103.4932 6.8559,105.2672 L8.1399,108.1452 C8.2739,108.4452 8.5859,108.6262 8.9129,108.5912 C9.6879,108.5092 12.3819,107.7932 12.7959,108.7112 C13.2139,109.6402 10.8719,111.1682 10.2929,111.6902 C9.1109,112.7612 12.5949,115.8402 11.0019,116.3882 C9.8539,116.7832 8.5509,115.0902 7.3019,115.1482 C5.8009,115.2182 5.4959,116.5302 4.3679,117.0772 C3.9239,117.2932 3.2649,117.1302 3.1519,116.6492 C3.1269,116.5412 3.1309,116.4302 3.1429,116.3192" id="Fill-10" fill="#B1223B"></path>
                    </g>
                </g>
                <g id="Page-1" transform="translate(265.000000, 94.550354)">
                    <mask id="mask-10" fill="white">
                        <use xlink:href="#path-9"></use>
                    </mask>
                    <g id="Clip-2"></g>
                    <path d="M15.994109,21.9921955 C14.6982872,21.9945969 13.4033732,21.9975986 12.107854,22 C11.8388242,21.9642794 11.5697944,21.9279584 11.3010672,21.8916374 C11.0849961,21.870025 10.8689249,21.8484125 10.6531563,21.8268 C10.4924647,21.790479 10.332681,21.7547584 10.1719894,21.7184375 C8.28878084,21.4314718 6.65765529,20.6243058 5.4235681,19.1990831 C4.66580588,18.3243782 4.09112918,17.2953842 3.43565275,16.3348297 C3.42082434,16.3132172 3.4202191,16.2828997 3.40690379,16.2612872 C1.85294652,13.7467356 1.69649162,10.9227054 1.44380334,8.09177116 C1.35180665,7.05467247 0.763209393,6.06109891 0.4006698,5.04741373 C0.266608832,4.72953023 0.133153106,4.41254724 0,4.09466374 C0.00302620695,4.04063255 0.0063550346,3.98570084 0.00877600016,3.93136947 C0.27841104,3.98179858 0.547440838,4.03192752 0.817075877,4.08235663 C1.4096072,4.24475038 2.00123066,4.40714412 2.59376198,4.56863735 C2.79318902,4.61666507 2.99382654,4.66439263 3.19325358,4.71332087 C3.46742793,4.70011325 3.74220752,4.68690562 4.01638187,4.67309765 C4.18705994,4.64127928 4.35864587,4.60886057 4.52932395,4.5770422 C4.63614905,4.56173336 4.74297416,4.54702487 4.84979926,4.53141586 C5.11882906,4.47048069 5.38785886,4.40864499 5.65658604,4.34740964 C6.1985797,4.36151779 6.73936288,4.37442524 7.28075131,4.38853338 C7.38576069,4.43566059 7.49016483,4.48218744 7.59487159,4.52931465 C9.50561866,5.23292082 10.2984849,6.87546902 10.9709081,8.57114789 C11.4263522,9.71961087 12.0016342,10.7191879 13.1945649,11.3156322 C13.2702201,11.2333847 13.3761373,11.1538388 13.4369641,11.0472773 C14.7155365,8.80318184 16.1242359,6.61852069 17.216394,4.28857568 C17.9726431,2.67634498 19.2245849,1.55970037 20.3394395,0.285464791 C20.4390018,0.171098771 20.6021143,0.109863421 20.7721871,0 C22.4257066,4.46027479 23.3335687,8.86111528 19.9690318,13.257153 C21.2297496,13.1451884 22.25866,13.0863544 23.2736498,12.9347669 C23.4649061,12.9068508 23.665241,12.5334352 23.7499748,12.2821902 C24.3800311,10.4223165 24.9801279,8.55343767 25.595961,6.68906141 C25.6171445,6.62542468 25.7091412,6.58460111 25.8501624,6.46092972 C26.9169004,7.4250863 27.9863619,8.39164427 29.0552182,9.35910275 C29.111203,9.41163308 29.1674905,9.46506392 29.2228701,9.51759425 C29.3293925,9.62055368 29.4362176,9.72321295 29.5430428,9.82617238 C29.695261,10.0062764 29.8471765,10.1872808 30,10.3691858 C28.8633567,11.5752821 27.7424496,12.7660695 26.6221478,13.9562566 C26.0780358,14.6397511 25.534529,15.3226453 24.990417,16.0061399 C24.1312769,16.9690958 23.3226744,17.9818804 22.3960498,18.8751961 C21.8041237,19.4458255 21.0372829,19.836351 20.3527549,20.3133263 C20.1203422,20.4751197 19.9006395,20.6543232 19.6751871,20.8254219 C18.7685355,21.1748236 17.8627918,21.5251259 16.9567454,21.8745276 C16.6356649,21.9132499 16.3151895,21.9528728 15.994109,21.9921955 M6.63193254,8.58975863 C6.85556923,8.24005676 7.11279682,8.01222524 7.07406137,7.85583496 C7.02261585,7.64691436 6.75449392,7.37495736 6.55476426,7.35394523 C6.3989146,7.33773587 6.05574273,7.67272926 6.06754494,7.83272162 C6.08237335,8.04854621 6.35836343,8.24545988 6.63193254,8.58975863" id="Fill-1" fill="#1C4786" mask="url(#mask-10)"></path>
                </g>
                <polygon id="Fill-1" fill="#FFD900" points="79.8352221 71.7369778 90.0042221 78.2849778 89.6872221 71.1589778 82.4472221 68.3669778"></polygon>
                <polygon id="Fill-2" fill="#00B1DD" points="378.918158 127.617513 382.455158 131.131513 390.173158 125.592513 388.759158 120.037513"></polygon>
                <polygon id="Fill-3" fill="#B1223B" points="113.533247 5.16189056 120.395247 13.4538906 124.719247 11.1778906 118.904247 0.126890557"></polygon>
                <polygon id="Fill-4" fill="#00B1DD" points="238.388414 6.87046683 230.832414 5.36446683 227.156414 10.8774668 236.346414 12.2564668"></polygon>
            </g>
        </g>
    </g>
</svg>