<?xml version="1.0" encoding="UTF-8"?>
<svg width="562px" height="399px" viewBox="0 0 562 399" version="1.1" xmlns="http://www.w3.org/2000/svg" xmlns:xlink="http://www.w3.org/1999/xlink">
    <!-- Generator: Sketch 46.2 (44496) - http://www.bohemiancoding.com/sketch -->
    <title>before</title>
    <desc>Created with Sketch.</desc>
    <defs>
        <path d="M140.45286,395.012504 C186.085728,400.012836 183.713967,342.67556 230.906584,340.377948 C278.100106,337.204103 278.101011,398.63647 323.734784,398.922546 C369.371272,400.06185 371.743033,332.198769 418.940177,333.909225 C466.488558,336.974041 436.491654,398.949334 478.882812,383.738281 C490.546989,379.989282 499.641616,372.861888 488.560421,349.472656 C477.539879,325.751336 486.200195,316.370117 488.560421,310.252922 C502.011129,275.391601 545.802245,288.481122 549.057533,253.647841 C552.31282,215.850771 496.187173,203.871579 498.594239,170.518693 C501.0004,134.364061 558.416937,143.924608 561.672225,109.157345 C564.81164,73.1137423 544.942255,82.7713153 521.657354,63.8312692 C478.596308,31.2675934 488.579432,-6.11036504 435.931764,0.843487642 C383.077698,11.0712126 380.705032,79.0063122 329.410716,90.2833167 C278.11459,102.519577 278.11459,41.1592288 225.257809,56.8554106 C172.400122,71.5713313 174.771883,128.980627 123.473042,135.920476 C72.5263429,139.942547 81.7327587,92.0817958 37.6035156,109.157345 C14.2461937,117.39454 50.1910509,138.961286 52.228774,162.295503 C54.6358401,188.190402 -2.78069742,178.588844 0.47459014,199.972541 C3.7298777,224.388046 59.8555253,236.326226 62.2625914,259.421379 C64.7103938,284.963184 13.4531935,268.941916 12.8964633,288.981255 C12.5017733,303.298069 32.2951166,313.225714 56.0263077,330.680365 C99.4766115,361.62761 94.6108799,387.951623 140.45286,395.012504 Z" id="path-1"></path>
        <polygon id="path-3" points="0.166 0.818 5 0.818 5 7.8176 0.166 7.8176 0.166 0.818"></polygon>
        <polygon id="path-5" points="0.166 0.818 5 0.818 5 7.8176 0.166 7.8176 0.166 0.818"></polygon>
        <polygon id="path-7" points="6.77626358e-21 0.145888074 6.77626358e-21 17.673335 13.88075 17.673335 13.88075 0.145888074"></polygon>
        <polygon id="path-9" points="0.519763636 5 5.66721818 5 5.66721818 0.504277778 0.519763636 0.504277778 0.519763636 5"></polygon>
        <polygon id="path-11" points="5.63072727 4.95261111 5.63072727 0.4565 0.484090909 0.4565 0.484090909 4.95261111 5.63072727 4.95261111"></polygon>
        <circle id="path-13" cx="74" cy="74" r="74"></circle>
        <polygon id="path-15" points="0 42.1265078 0 0.0483324134 11.9585697 0.0483324134 11.9585697 42.1265078 1.12545859e-15 42.1265078"></polygon>
        <polygon id="path-17" points="54.8795744 48.008594 0.415154194 48.008594 0.415154194 0.13372355 54.8795744 0.13372355"></polygon>
        <circle id="path-19" cx="75.5" cy="75.5" r="75.5"></circle>
        <polygon id="path-21" points="66.9237699 2.60934251 66.9237699 18 0 18 0 0 66.9237699 0 66.9237699 2.60934251 16.5164447 2.60934251 16.5164447 17.9999968 66.9237916 17.9999968 66.9237916 2.60934251"></polygon>
        <polygon id="path-23" points="66.9237699 2.60934251 66.9237699 18 0 18 0 0 66.9237699 0 66.9237699 2.60934251 16.5164447 2.60934251 16.5164447 17.9999968 66.9237916 17.9999968 66.9237916 2.60934251"></polygon>
        <polygon id="path-25" points="66.9237699 2.60934251 66.9237699 18 0 18 0 0 66.9237699 0 66.9237699 2.60934251 16.5164447 2.60934251 16.5164447 17.9999968 66.9237916 17.9999968 66.9237916 2.60934251"></polygon>
        <polygon id="path-27" points="66.9237699 2.60934251 66.9237699 18 0 18 0 0 66.9237699 0 66.9237699 2.60934251 16.5164447 2.60934251 16.5164447 17.9999968 66.9237916 17.9999968 66.9237916 2.60934251"></polygon>
        <polygon id="path-29" points="66.9237699 2.60934251 66.9237699 18 0 18 0 0 66.9237699 0 66.9237699 2.60934251 16.5164447 2.60934251 16.5164447 17.9999968 66.9237916 17.9999968 66.9237916 2.60934251"></polygon>
        <polygon id="path-31" points="66.9237699 2.60934251 66.9237699 18 0 18 0 0 66.9237699 0 66.9237699 2.60934251 16.5164447 2.60934251 16.5164447 17.9999968 66.9237916 17.9999968 66.9237916 2.60934251"></polygon>
        <polygon id="path-33" points="66.9237699 2.60934251 66.9237699 18 0 18 0 0 66.9237699 0 66.9237699 2.60934251 16.5164447 2.60934251 16.5164447 17.9999968 66.9237916 17.9999968 66.9237916 2.60934251"></polygon>
        <polygon id="path-35" points="66.9237699 2.60934251 66.9237699 18 0 18 0 0 66.9237699 0 66.9237699 2.60934251 16.5164447 2.60934251 16.5164447 17.9999968 66.9237916 17.9999968 66.9237916 2.60934251"></polygon>
        <polygon id="path-37" points="66.9237699 2.60934251 66.9237699 18 0 18 0 0 66.9237699 0 66.9237699 2.60934251 16.5164447 2.60934251 16.5164447 17.9999968 66.9237916 17.9999968 66.9237916 2.60934251"></polygon>
        <polygon id="path-39" points="0.107900212 15 12.6921364 15 12.6921364 0.0193191964 0.107900212 0.0193191964"></polygon>
        <polygon id="path-41" points="19.6144444 0.018928 19.6144444 55.825076 0.169305601 55.825076 0.169305601 0.018928 19.6144444 0.018928"></polygon>
        <polygon id="path-43" points="0.749379846 0.350205882 16.5565267 0.350205882 16.5565267 17.9073407 0.749379846 17.9073407 0.749379846 0.350205882"></polygon>
        <polygon id="path-45" points="66.9237699 2.60934251 66.9237699 18 0 18 0 0 66.9237699 0 66.9237699 2.60934251 16.5164447 2.60934251 16.5164447 17.9999968 66.9237916 17.9999968 66.9237916 2.60934251"></polygon>
        <polygon id="path-47" points="66.9237699 2.60934251 66.9237699 18 0 18 0 0 66.9237699 0 66.9237699 2.60934251 16.5164447 2.60934251 16.5164447 17.9999968 66.9237916 17.9999968 66.9237916 2.60934251"></polygon>
        <polygon id="path-49" points="66.9237699 2.60934251 66.9237699 18 0 18 0 0 66.9237699 0 66.9237699 2.60934251 16.5164447 2.60934251 16.5164447 17.9999968 66.9237916 17.9999968 66.9237916 2.60934251"></polygon>
        <polygon id="path-51" points="66.9237699 2.60934251 66.9237699 18 0 18 0 0 66.9237699 0 66.9237699 2.60934251 16.5164447 2.60934251 16.5164447 17.9999968 66.9237916 17.9999968 66.9237916 2.60934251"></polygon>
        <polygon id="path-53" points="66.9237699 2.60934251 66.9237699 18 0 18 0 0 66.9237699 0 66.9237699 2.60934251 16.5164447 2.60934251 16.5164447 17.9999968 66.9237916 17.9999968 66.9237916 2.60934251"></polygon>
    </defs>
    <g id="Page-1" stroke="none" stroke-width="1" fill="none" fill-rule="evenodd">
        <g id="Group-11" transform="translate(-85.000000, -302.000000)">
            <g id="before" transform="translate(85.000000, 302.000000)">
                <g id="cloud">
                    <mask id="mask-2" fill="white">
                        <use xlink:href="#path-1"></use>
                    </mask>
                    <use id="Mask" fill="#E7E6EC" xlink:href="#path-1"></use>
                    <path d="M304.261267,401.272286 C339.45935,400.843692 341.710622,468.427367 375.428082,467.512098 C409.146447,467.196661 409.146447,405.521175 444.34453,408.548371 C479.54533,410.957711 477.294059,468.369287 511.01333,464.75027 C544.913717,459.739325 538.994846,427.72395 571.22806,405.925736 C588.908604,394.103349 610.48767,397.975717 612.752525,380.595627 C613.917101,372.115873 600.825131,372.890948 587.587363,371.596153 C574.35865,370.60578 560.985045,367.543536 561.808217,358.422894 C563.393888,341.708727 619.539847,331.059967 621.930578,312.177795 C623.09606,303.698042 609.391012,303.383606 595.541072,300.918189 C581.700187,298.76921 567.712599,294.46925 568.536676,285.34961 C569.756493,268.124735 635.539634,231.49196 618.310069,224.747612 C585.503623,211.599388 560.324877,274.803993 522.947968,271.935016 C485.255012,266.987158 487.505379,209.528517 448.331799,198.233862 C409.156409,186.250252 409.156409,247.877672 371.461641,239.236695 C333.765063,231.265646 331.513791,163.633904 292.33659,155.494623 C253.340504,149.765682 265.390151,195.222688 233.589804,218.409827 C216.432686,231.574074 189.870213,217.744906 192.135975,244.678237 C194.526706,269.611796 251.897915,261.293266 253.483586,288.474942 C254.306758,301.283696 240.626161,308.567792 227.092268,317.962814 C213.547508,327.046404 200.149452,338.241922 201.314028,351.689561 C203.82339,376.629129 264.140451,375.610717 259.617984,402.30672 C251.84358,445.34938 209.653514,479.349506 227.002615,486.095857 C258.22158,497.198245 268.746231,402.40786 304.261267,401.272286 Z" id="Fill-1" fill="#DAD9DD" mask="url(#mask-2)"></path>
                </g>
                <g id="rain" transform="translate(223.000000, 66.000000)">
                    <path d="M19,151.584 C19,152.918 17.8803808,154 16.5,154 C15.1196192,154 14,152.918 14,151.584 C14,150.25 16.5,147 16.5,147 C16.5,147 19,150.25 19,151.584" id="Fill-1" fill="#34A0C6"></path>
                    <path d="M5,131.584 C5,132.918 3.88084402,134 2.49896566,134 C1.11915598,134 0,132.918 0,131.584 C0,130.25 2.49896566,127 2.49896566,127 C2.49896566,127 5,130.25 5,131.584" id="Fill-3" fill="#34A0C6"></path>
                    <path d="M36,82.584 C36,83.918 34.880844,85 33.5010343,85 C32.119156,85 31,83.918 31,82.584 C31,81.25 33.5010343,78 33.5010343,78 C33.5010343,78 36,81.25 36,82.584" id="Fill-5" fill="#34A0C6"></path>
                    <path d="M46,137.584 C46,138.918 44.880844,140 43.5010343,140 C42.119156,140 41,138.918 41,137.584 C41,136.25 43.5010343,133 43.5010343,133 C43.5010343,133 46,136.25 46,137.584" id="Fill-7" fill="#34A0C6"></path>
                    <path d="M59,166.584 C59,167.918 57.880844,169 56.4989657,169 C55.119156,169 54,167.918 54,166.584 C54,165.25 56.4989657,162 56.4989657,162 C56.4989657,162 59,165.25 59,166.584" id="Fill-9" fill="#34A0C6"></path>
                    <path d="M29,122.584 C29,123.918 27.8803808,125 26.5,125 C25.1196192,125 24,123.918 24,122.584 C24,121.25 26.5,118 26.5,118 C26.5,118 29,121.25 29,122.584" id="Fill-11" fill="#34A0C6"></path>
                    <path d="M80,113.584 C80,114.918 78.880844,116 77.4989657,116 C76.119156,116 75,114.918 75,113.584 C75,112.25 77.4989657,109 77.4989657,109 C77.4989657,109 80,112.25 80,113.584" id="Fill-13" fill="#34A0C6"></path>
                    <path d="M96,100.584 C96,101.918 94.880844,103 93.5010343,103 C92.119156,103 91,101.918 91,100.584 C91,99.25 93.5010343,96 93.5010343,96 C93.5010343,96 96,99.25 96,100.584" id="Fill-15" fill="#34A0C6"></path>
                    <g id="Group-19" transform="translate(100.000000, 71.000000)">
                        <mask id="mask-4" fill="white">
                            <use xlink:href="#path-3"></use>
                        </mask>
                        <g id="Clip-18"></g>
                        <path d="M5,5.4016 C5,6.7356 3.918,7.8176 2.584,7.8176 C1.248,7.8176 0.166,6.7356 0.166,5.4016 C0.166,4.0676 2.584,0.8176 2.584,0.8176 C2.584,0.8176 5,4.0676 5,5.4016" id="Fill-17" fill="#34A0C6" mask="url(#mask-4)"></path>
                    </g>
                    <g id="Group-19-Copy" transform="translate(107.000000, 51.000000)">
                        <mask id="mask-6" fill="white">
                            <use xlink:href="#path-5"></use>
                        </mask>
                        <g id="Clip-18"></g>
                        <path d="M5,5.4016 C5,6.7356 3.918,7.8176 2.584,7.8176 C1.248,7.8176 0.166,6.7356 0.166,5.4016 C0.166,4.0676 2.584,0.8176 2.584,0.8176 C2.584,0.8176 5,4.0676 5,5.4016" id="Fill-17" fill="#34A0C6" mask="url(#mask-6)"></path>
                    </g>
                    <path d="M130,86.584 C130,87.918 128.880844,89 127.501034,89 C126.119156,89 125,87.918 125,86.584 C125,85.25 127.501034,82 127.501034,82 C127.501034,82 130,85.25 130,86.584" id="Fill-22" fill="#34A0C6"></path>
                    <path d="M86,86.584 C86,87.918 84.880844,89 83.4989657,89 C82.119156,89 81,87.918 81,86.584 C81,85.25 83.4989657,82 83.4989657,82 C83.4989657,82 86,85.25 86,86.584" id="Fill-24" fill="#34A0C6"></path>
                    <path d="M60,78.584 C60,79.918 58.880844,81 57.4989657,81 C56.119156,81 55,79.918 55,78.584 C55,77.25 57.4989657,74 57.4989657,74 C57.4989657,74 60,77.25 60,78.584" id="Fill-26" fill="#34A0C6"></path>
                    <path d="M22,63.584 C22,64.918 20.880844,66 19.4989657,66 C18.119156,66 17,64.918 17,63.584 C17,62.25 19.4989657,59 19.4989657,59 C19.4989657,59 22,62.25 22,63.584" id="Fill-26-Copy-2" fill="#34A0C6"></path>
                    <path d="M46,42.584 C46,43.918 44.880844,45 43.4989657,45 C42.119156,45 41,43.918 41,42.584 C41,41.25 43.4989657,38 43.4989657,38 C43.4989657,38 46,41.25 46,42.584" id="Fill-26-Copy" fill="#34A0C6"></path>
                    <path d="M65,48.584 C65,49.918 63.880844,51 62.4989657,51 C61.119156,51 60,49.918 60,48.584 C60,47.25 62.4989657,44 62.4989657,44 C62.4989657,44 65,47.25 65,48.584" id="Fill-26-Copy-3" fill="#34A0C6"></path>
                    <path d="M71,4.584 C71,5.918 69.880844,7 68.4989657,7 C67.119156,7 66,5.918 66,4.584 C66,3.25 68.4989657,0 68.4989657,0 C68.4989657,0 71,3.25 71,4.584" id="Fill-26-Copy-4" fill="#34A0C6"></path>
                    <path d="M56,113.584 C56,114.918 54.8803808,116 53.5,116 C52.1196192,116 51,114.918 51,113.584 C51,112.25 53.5,109 53.5,109 C53.5,109 56,112.25 56,113.584" id="Fill-28" fill="#34A0C6"></path>
                    <path d="M102,137.584 C102,138.918 100.880844,140 99.5010343,140 C98.119156,140 97,138.918 97,137.584 C97,136.25 99.5010343,133 99.5010343,133 C99.5010343,133 102,136.25 102,137.584" id="Fill-30" fill="#34A0C6"></path>
                    <path d="M24,105.584 C24,106.918 22.880844,108 21.5010343,108 C20.119156,108 19,106.918 19,105.584 C19,104.25 21.5010343,101 21.5010343,101 C21.5010343,101 24,104.25 24,105.584" id="Fill-34" fill="#34A0C6"></path>
                    <path d="M130,136.584 C130,137.918 128.880844,139 127.501034,139 C126.119156,139 125,137.918 125,136.584 C125,135.25 127.501034,132 127.501034,132 C127.501034,132 130,135.25 130,136.584" id="Fill-36" fill="#34A0C6"></path>
                    <path d="M146,151.584 C146,152.918 144.880844,154 143.501034,154 C142.119156,154 141,152.918 141,151.584 C141,150.25 143.501034,147 143.501034,147 C143.501034,147 146,150.25 146,151.584" id="Fill-36-Copy" fill="#34A0C6" transform="translate(143.500000, 150.500000) rotate(-26.000000) translate(-143.500000, -150.500000) "></path>
                    <path d="M114,122.584 C114,123.918 112.880381,125 111.5,125 C110.119619,125 109,123.918 109,122.584 C109,121.25 111.5,118 111.5,118 C111.5,118 114,121.25 114,122.584" id="Fill-38" fill="#34A0C6"></path>
                    <path d="M141,112.584 C141,113.918 139.880381,115 138.5,115 C137.119619,115 136,113.918 136,112.584 C136,111.25 138.5,108 138.5,108 C138.5,108 141,111.25 141,112.584" id="Fill-40" fill="#34A0C6"></path>
                    <path d="M83,59.584 C83,60.918 81.880844,62 80.4989657,62 C79.119156,62 78,60.918 78,59.584 C78,58.25 80.4989657,55 80.4989657,55 C80.4989657,55 83,58.25 83,59.584" id="Fill-42" fill="#34A0C6"></path>
                    <path d="M94,26.584 C94,27.918 92.880844,29 91.4989657,29 C90.119156,29 89,27.918 89,26.584 C89,25.25 91.4989657,22 91.4989657,22 C91.4989657,22 94,25.25 94,26.584" id="Fill-42-Copy" fill="#34A0C6"></path>
                    <path d="M118,109.584 C118,110.918 116.880844,112 115.501034,112 C114.119156,112 113,110.918 113,109.584 C113,108.25 115.501034,105 115.501034,105 C115.501034,105 118,108.25 118,109.584" id="Fill-44" fill="#34A0C6"></path>
                    <path d="M77,148.584 C77,149.918 75.8803808,151 74.5,151 C73.1196192,151 72,149.918 72,148.584 C72,147.25 74.5,144 74.5,144 C74.5,144 77,147.25 77,148.584" id="Fill-46" fill="#34A0C6"></path>
                    <path d="M68,137.584 C68,138.918 66.8803808,140 65.5,140 C64.1196192,140 63,138.918 63,137.584 C63,136.25 65.5,133 65.5,133 C65.5,133 68,136.25 68,137.584" id="Fill-48" fill="#34A0C6"></path>
                </g>
                <g id="head-in-sand" transform="translate(414.000000, 70.000000)">
                    <circle id="Oval-2" fill="#00394E" cx="61" cy="62" r="61"></circle>
                    <g transform="translate(2.000000, 0.000000)">
                        <path d="M32.0062639,47.6711431 L30.5538149,48.4389629 C29.4101339,49.0415425 28.6671285,50.2055219 28.593809,51.5055508 L28.4084449,54.8223447 C28.3712689,55.4911246 28.5153262,56.1562557 28.8220289,56.7494525 L29.2676256,57.605887 C29.5056558,58.0614705 29.8350772,58.4618002 30.2336875,58.7808129 L35.4708686,62.9743705 C35.8658645,63.2918194 36.3228205,63.5222175 36.811273,63.6525331 L47.649651,66.5361578 L52.138147,67.8950894 L40.5268162,64.2405173 C40.3357725,64.1800509 40.1395654,64.1367861 39.9412929,64.1081166 L29.5541913,62.6569216 C29.4700287,62.645975 29.3874152,62.6303372 29.305318,62.6131355 L26.6658159,62.0559058 C25.9506926,61.9047396 25.2076872,61.973025 24.5318053,62.2524218 L23.4165228,62.7132179 C22.2929788,63.1766204 21.4694253,64.1722319 21.220552,65.3721784 L21.07856,66.0529474 C20.9623848,66.608092 20.9752931,67.1846085 21.1157361,67.7361043 L21.6718284,69.9076843 C22.0683733,71.4610468 23.4123921,72.5796764 24.9980554,72.6745462 C28.2272115,72.8653283 33.2883225,73.1749582 33.6476914,73.2411586 C34.1774506,73.341241 50.3521459,79.8492045 51.0579752,79.9816052 C51.5820548,80.0801239 55.0487248,79.7590261 56.7970335,79.5849244 C57.453811,79.5208091 58.0775431,79.2810283 58.6088513,78.8859113 L63.5057679,75.2537535 C64.4620195,74.5453576 65.0186281,73.4131753 64.9995237,72.2168776 L64.8838648,64.8941806 C64.8688911,63.9835349 64.5203653,63.108335 63.9064435,62.4416401 L59.8707729,58.0458326 C59.5243124,57.6700023 59.1050488,57.3692338 58.6372497,57.1654201 L52.9596353,53.5916437 C52.6957883,53.4769659 50.9418,53.7772132 50.7120311,53.6031115 L42.9639152,47.7394285 C42.2957783,47.2327613 41.4758391,46.97213 40.6409262,47.0023632 L33.5728229,47.2536118 C33.0265409,47.2723772 32.491102,47.4162457 32.0062639,47.6711431" id="Fill-1" fill="#AF2243"></path>
                        <g id="Group-5" transform="translate(0.000000, 64.000000)">
                            <mask id="mask-8" fill="white">
                                <use xlink:href="#path-7"></use>
                            </mask>
                            <g id="Clip-4"></g>
                            <path d="M13.88075,2.76752571 L8.35575,0.399754286 C7.87325,0.193011429 7.35125,0.110725714 6.83125,0.159582857 L4.74675,0.355525714 C4.13575,0.411068571 3.56675,0.696497143 3.14625,1.15678286 L1.62175,2.82152571 C1.22675,3.25249714 0.96375,3.79301143 0.86425,4.37672571 L0.29475,7.73449714 C0.29475,7.73449714 -1.49075,16.7494114 3.72475,17.4647829 C5.62025,17.7239829 8.66575,17.9667257 9.18775,16.7134114 C9.70775,15.4626686 8.83975,12.0658114 8.83975,12.0658114 L11.96825,13.1375829 L13.88075,2.76752571 Z" id="Fill-3" fill="#77777B" mask="url(#mask-8)"></path>
                        </g>
                        <path d="M27,59.6243673 L20.3326313,57 L16.2601995,57.3501169 L14.2484842,59.3688222 C13.6359683,59.9815267 13.2961552,60.7929326 13.2961552,61.6360301 L13.2961552,64.6960312 C13.2961552,64.6960312 11.4447593,72.9172377 17.0000122,73.6154593 C19.0197168,73.8705013 21.4447471,74.4907514 22.000805,73.2653424 C22.5552651,72.0419456 21.6300998,68.7188537 21.6300998,68.7188537 L24.9627189,69.7676952 L27,59.6243673 Z" id="Fill-6" fill="#32313E"></path>
                        <path d="M19.698159,41.0631052 L18.2305829,41.8366311 C17.1622246,42.3997621 16.372031,43.3810854 16.0433846,44.5489068 L15.4159688,56.9528538 C15.1707718,57.8230055 15.1970429,58.745626 15.4906611,59.6007124 L16.342154,62.0828525 C16.5456263,62.6776726 16.8742727,63.2200238 17.3018221,63.6756196 L19.0233522,65.5089123 C19.5801966,66.1016544 21.1023754,67.7723456 21.8848422,67.98326 L38.4768485,71.6462089 L42.9532389,73.0005285 L31.4289804,69.3770611 C31.199237,69.3032931 30.9643425,69.2508242 30.7253269,69.2165376 L20.446628,67.7837745 C20.347725,67.7681897 20.248822,67.7515659 20.1494039,67.7307861 L17.7613089,67.2258384 C16.9062101,67.0455742 15.1280168,65.8476221 14.3177335,66.1811369 L10,76.5221752 C10,76.5221752 13.8752457,77.9362366 15.0105695,78.5071599 C17.5145665,79.7669318 21.8060289,81.9062061 22.1774302,81.9763377 C22.7064582,82.0740025 36.3720693,85.8107195 37.0782984,85.9426709 C37.670171,86.0517645 46.3128497,85.9764379 49.0465901,85.9499438 C49.5941623,85.9442293 50.1298868,85.8372137 50.6377949,85.6314942 L56.253115,83.3509176 C58.2177816,82.5540145 59.3345612,80.4562997 58.9106176,78.3658577 L57.5677005,71.7682899 C57.328685,70.5859226 56.6173046,69.5536889 55.603549,68.9115949 L49.3587526,64.9644831 L43.3622439,60.7945085 C43.2669468,60.7285328 43.1752555,60.6589207 43.0856246,60.5856721 L34.0452735,53.1782139 C33.2236576,52.5039113 32.3613471,41.3701259 31.302261,41.4075294 L24.7720883,41.6392235 C24.116856,41.6615618 22.7564248,40.757643 22.1758849,41.0631052" id="Fill-8" fill="#AF2243"></path>
                        <path d="M38.7821206,30.7369162 C38.7821206,30.7369162 16.2903769,34.8264875 16.006738,40.5247601 C15.7015178,46.6570697 25.8673009,48.325144 25.8673009,48.325144 L39.6217329,55 L52.7672661,53.1297505 C52.7672661,53.1297505 68.2574449,36.8769034 66.9178676,34.2066539 C65.5788042,31.5384517 54.8601308,27 54.8601308,27 L38.7821206,30.7369162 Z" id="Fill-10" fill="#4F85BA"></path>
                        <path d="M80,17.7917618 L81.1730876,12.337835 L80.3572653,5.20822261 L82.1470846,4.23252012 L83.7832199,7.56460668 L84.5521386,6.79217554 L85.003211,4.57026329 C85.003211,4.57026329 85.1035047,2.27381821 85.9527582,1.03282054 C86.8045066,-0.209219548 88.7055971,0.0159425661 88.7055971,0.0159425661 C88.7055971,0.0159425661 90.3282601,0.332837393 91.9464323,1.7156038 C93.5641056,3.09837021 92.8371007,8.27605642 92.8371007,8.27605642 L89.6855817,17.2278141 L88.7584883,22 L80,17.7917618 Z" id="Fill-12" fill="#EF856C"></path>
                        <polygon id="Fill-14" fill="#EF856C" points="64 74.3680533 64 82.9755973 72.9338098 84 81 79.1837705 75.2866166 70"></polygon>
                        <path d="M27.3348185,29 L23.3250876,23.0575615 L16,17.6310801 L16.6841779,14.9929736 L21.2210622,16.278663 L21.1879239,14.8358747 L19.5305005,12.4415606 C19.5305005,12.4415606 17.4927517,10.3320212 17.0971317,8.39902109 C16.7030412,6.46286849 18.5980405,4.76525409 18.5980405,4.76525409 C18.5980405,4.76525409 20.3309172,3.42492159 23.0467261,3.02192863 C25.7620251,2.6199865 29.9109367,7.87675903 29.9109367,7.87675903 L35.4042426,18.8526689 L39,23.9533933 L27.3348185,29 Z" id="Fill-16" fill="#EF856C"></path>
                        <path d="M74.3763862,41.1473775 C74.3763862,41.1473775 58.6411026,24.3918225 53.7357754,27.3502496 C48.4567723,30.53344 42,34.8816447 42,34.8816447 L58.2347109,73.3453692 L66.9575644,76.8445841 C66.9575644,76.8445841 74.4709553,77.7639754 75.9625919,75.1304381 C77.4526949,72.4984654 76.8995932,53.8118235 76.8995932,53.8118235 L74.3763862,41.1473775 Z" id="Fill-18" fill="#4F85BA"></path>
                        <polygon id="Fill-20" fill="#B9A54F" points="42 94.1562889 48.3932292 85.2512285 58.3256869 86.8179614 62.7017872 78.9381702 72.269784 80.6427589 81.8932981 74 93.544736 74 98 82.3421058 98 87.8662939 87.0337896 85.3010243 80.1794582 98 67.0979355 96.2529539 62.3594305 93.4570511 58.3256869 98 56.5331975 94.8550025 51.392706 98 47.9660544 94.5053836"></polygon>
                        <polygon id="Fill-22" fill="#4F85BA" points="75.0651769 73 83.0538251 68.8910308 90 41.1963303 90 18.4806789 79.1340005 14 71 61.5628176"></polygon>
                        <polygon id="Fill-24" fill="#4F85BA" points="64 75 42.5327011 22 24 29.830775 53.9175385 74.7352289"></polygon>
                        <polygon id="Fill-26" fill="#B9A54F" points="89.3998 93 88 96 91 96"></polygon>
                        <polygon id="Fill-28" fill="#B9A54F" points="103.3998 88 102 91 105 91"></polygon>
                        <g id="Group-32" transform="translate(64.000000, 99.000000)">
                            <mask id="mask-10" fill="white">
                                <use xlink:href="#path-9"></use>
                            </mask>
                            <g id="Clip-31"></g>
                            <polygon id="Fill-30" fill="#B9A54F" mask="url(#mask-10)" points="0.519763636 0.504277778 3.23612727 5.00038889 5.66721818 1.73205556"></polygon>
                        </g>
                        <g id="Group-35" transform="translate(104.000000, 82.000000)">
                            <mask id="mask-12" fill="white">
                                <use xlink:href="#path-11"></use>
                            </mask>
                            <g id="Clip-34"></g>
                            <polygon id="Fill-33" fill="#B9A54F" mask="url(#mask-12)" points="0.484090909 0.4565 3.19990909 4.95261111 5.631 1.68427778"></polygon>
                        </g>
                        <polygon id="Fill-36" fill="#B9A54F" points="34 89 36.63883 93 39 90.092302"></polygon>
                    </g>
                </g>
                <g id="umbrealla-man" transform="translate(223.000000, 207.000000)">
                    <g id="Group-8" transform="translate(0.000000, 14.000000)">
                        <g id="Page-1">
                            <mask id="mask-14" fill="white">
                                <use xlink:href="#path-13"></use>
                            </mask>
                            <use id="Mask" fill="#00394E" xlink:href="#path-13"></use>
                            <g mask="url(#mask-14)">
                                <g transform="translate(34.000000, 24.000000)">
                                    <path d="M61.4450931,94.2339513 L59.7964078,90.3334972 L60.9963787,76.9993867 L59.7148234,65.1875464 L59.1879239,61.8697183 L57.5551023,62.6442271 L52.0810139,64.6642297 L49.0657895,62.708188 L49.5167701,66.5353778 L49.6856045,73.4419958 L51.5915073,91.0696294 L52.0617509,93.7385448 L52.1637314,97.7727354 C52.1637314,97.7727354 53.5835271,100.740523 54.2679298,101.130103 C54.9523325,101.519683 55.586878,100.71145 55.586878,100.71145 L55.3307936,96.9935749 L56.6010178,96.6819107 L57.7160049,99.2298818 C57.7160049,99.2298818 56.4729755,103.081493 56.4469138,104.072306 C56.4231184,105.058467 58.2055115,105.185226 58.6304304,104.644466 C59.0542161,104.102542 60.8592716,101.938337 61.4450931,100.013694 C62.0275152,98.0855625 61.4450931,94.2339513 61.4450931,94.2339513" id="Fill-1" fill="#F1856C"></path>
                                    <g id="Group-5" stroke-width="1" fill="none" transform="translate(0.000000, 63.355634)">
                                        <mask id="mask-16" fill="white">
                                            <use xlink:href="#path-15"></use>
                                        </mask>
                                        <g id="Clip-4"></g>
                                        <path d="M1.69868331,31.9360789 L2.87173415,27.844711 L-0.000574461722,14.7565264 L0.846182117,6.45266835 L1.97327602,3.90444376 L1.67225807,0.0483324134 L7.42951346,1.34340817 L11.9585697,1.20248715 L11.8965278,2.27045879 L9.95254934,7.24462115 L11.2152162,27.5139542 L11.0761965,30.2252279 L11.4771708,34.2478823 C11.4771708,34.2478823 10.4190123,37.3795897 9.7790619,37.8547614 C9.13911154,38.3299331 8.39805592,37.6113524 8.39805592,37.6113524 L8.19239862,33.8845157 L6.87688128,33.7389361 L6.07378379,36.4164354 C6.07378379,36.4164354 7.80291358,40.0803817 7.95342255,41.0610056 C8.10048475,42.0393002 6.32310018,42.395679 5.83021202,41.9123549 C5.33502602,41.4301954 3.24858104,39.5132037 2.42020724,37.6777367 C1.59413128,35.8387757 1.69868331,31.9360789 1.69868331,31.9360789" id="Fill-3" fill="#F1856C" mask="url(#mask-16)"></path>
                                    </g>
                                    <path d="M48.796376,68.2975509 L61.7039474,66.6813841 L61.490705,61.5052821 L58.4470491,49.343799 L56.3414265,44.0493007 L53.2336814,40.4043042 L46.6091853,36.6834421 L40.7421074,33.6373239 C40.7421074,33.6373239 35.3341415,37.8559103 32.1494893,38.1179914 C28.9625066,38.3800725 24.9703301,36.9466727 24.9703301,36.9466727 L21.8299577,34.5925406 L15.4979416,37.331748 L6.11760851,44.8297967 L1.07203806,57.5579728 L0,64.3329994 L11.3333067,67.4480863 L12.7118079,61.6064363 L13.5100101,64.382427 L13.7780196,69.1975927 L14.2872377,81.2050457 L16.688836,81.9717479 L34.4485449,83.415493 L47.5973248,80.9004339 L47.7301643,60.7351315 L48.796376,68.2975509 Z" id="Fill-6" fill="#5087BE"></path>
                                    <polygon id="Fill-8" fill="#A0A0A1" points="22.955572 80.1232447 14.4204108 79.265373 12.7106041 86.6263535 11.0805652 92.8079056 9.43665359 102.69955 8.92105263 114.478744 9.43665359 126.245168 10.8805675 144.003926 13.5036585 159.940141 27.067663 159.940141 28.9924962 139.969955 30.3208045 120.490811 31.8063364 102.953777 32.7785795 102.946812 35.682592 152.393424 36.4005028 159.427043 44.7946251 159.427043 49.2454406 159.427043 52.5344198 140.734958 53.5263158 118.925979 53.5263158 107.319752 53.034992 97.4234644 51.8743118 91.8699348 49.8581502 85.6454312 47.4674265 78.9577465 35.0710384 80.369346"></polygon>
                                    <path d="M44.8962757,8.67625878 L42.295171,4.41518101 L39.557166,2.56937389 L36.2891114,1.69014085 L32.7121536,1.69014085 C32.7121536,1.69014085 28.1183897,1.80077282 24.0312737,4.95669541 C19.9394774,8.1102889 19.3298618,14.6131198 19.3298618,14.6131198 C19.3298618,14.6131198 19.2725275,18.9673613 20.0658469,20.9878505 C20.8615064,23.0118333 23.6591859,25.5715078 23.6591859,25.5715078 L26.8032113,28.137005 L25.1674288,32.4213738 L21.0276589,35.7205356 L24.4829276,37.8784414 L31.982019,38.8380282 L43.1750769,35.0963384 L38.9381897,31.2265485 L37.8184159,28.2429788 C37.8184159,28.2429788 40.4195206,26.2842106 42.628646,23.9399774 C44.8354312,21.5957441 45.2098592,18.8322739 45.2098592,18.8322739 L46.0921053,14.2567684 L44.8962757,8.67625878 Z" id="Fill-10" fill="#F1856C"></path>
                                    <polygon id="Fill-12" fill="#193A6B" points="31.9671053 38.4542066 26.9529442 42.5528169 24.0965691 40.5185377 21.2343432 37.1746912 20.0723684 34.7462703 24.490915 32.1514085"></polygon>
                                    <polygon id="Fill-14" fill="#193A6B" points="31.9671053 39.1412412 37.5439024 43.2957746 39.5285359 41.7328452 42.7287858 37.0475719 43.1184211 34.5743005 39.5285359 32.1514085"></polygon>
                                    <path d="M27.5059204,16.9625463 C27.482009,17.5771444 26.9639269,18.0582641 26.3492027,18.0343575 C25.7334821,18.0114471 25.2532599,17.4934714 25.2771714,16.8788734 C25.3000865,16.2632792 25.8171723,15.7851478 26.4318965,15.8070622 C27.0466208,15.8299726 27.526843,16.3469522 27.5059204,16.9625463" id="Fill-16" fill="#32303E"></path>
                                    <path d="M38.6571733,16.9615814 C38.6342581,17.5761626 38.1151784,18.0582651 37.501449,18.0343592 C36.8857269,18.0104533 36.4055035,17.4934879 36.4284187,16.8789068 C36.4513339,16.2643256 36.9694173,15.7842152 37.584143,15.807125 C38.1988688,15.8290388 38.6790922,16.3470002 38.6571733,16.9615814" id="Fill-18" fill="#32303E"></path>
                                    <path d="M34.1973684,25.0239555 L29.7380189,25.4647887 C29.7380189,25.4647887 29.6146096,23.4127778 31.8953093,23.2408216 C33.394021,23.1272262 34.1973684,25.0239555 34.1973684,25.0239555" id="Fill-20" fill="#E13E2B"></path>
                                    <path d="M33.1105635,10.0126571 C34.4936491,9.53594231 35.0225097,9.74377119 36.1963504,8.94885507 C37.3690414,8.15276476 37.0275814,6.6005061 38.9763179,7.35197777 C40.9239047,8.10579779 40.0029973,10.9261649 41.1710895,12.3163875 C42.338032,13.7066101 42.577169,13.8874329 43.2543406,14.9770669 C43.9315121,16.0643524 44.5914383,15.5371481 44.6374261,17.4123048 C44.683414,19.2886356 45.2985019,19.1864824 45.2985019,19.1864824 C45.2985019,19.1864824 46.1895172,17.1093677 46.3021875,16.2874456 C46.459696,15.1003552 46.1665232,13.1688382 46.1665232,13.1688382 C46.1665232,13.1688382 46.3251814,9.98799948 45.6296147,7.76763553 C44.934048,5.54609741 44.1108649,4.49990794 42.0391108,3.39500975 C39.966207,2.28893739 37.2460238,2.13277218 35.1880661,1.32728848 C33.131258,0.520630614 31.5216822,1.11711125 28.3853086,2.00596134 C25.2466357,2.89363725 24.0452022,4.40010311 24.0452022,4.40010311 L20.7478711,6.99972542 C20.7478711,6.99972542 19.4763062,8.43808916 19.0118286,10.3672578 C18.5485006,12.2940782 19.2015286,14.4569076 19.0118286,16.0995777 C18.8221285,17.7410736 19.2383189,20.1305187 19.8511074,21.2412877 C20.4615965,22.3485343 21.0939299,22.4929577 21.0939299,22.4929577 C21.0939299,22.4929577 20.1661244,21.1144769 20.6225541,19.2651521 C21.0778342,17.4170014 21.9699991,18.6557555 22.3091597,16.45183 C22.64947,14.2490787 21.6124433,13.31561 22.5413985,11.5496515 C23.4703537,9.78251895 25.412192,9.36216448 25.412192,9.36216448 C25.412192,9.36216448 27.5920177,11.1668707 29.5419038,11.3124683 C31.4906404,11.4568918 31.7274779,10.489372 33.1105635,10.0126571" id="Fill-22" fill="#B93E23"></path>
                                    <path d="M31.4794455,21.1686772 C32.2210291,21.6895722 32.0603144,22.0603269 31.3772769,22.513812 C30.6953873,22.9683184 29.1444902,23.1225442 29.1444902,23.1225442 L26.0197368,23.2359155 L28.6428307,21.5557737 C28.6428307,21.5557737 30.7401578,20.6467608 31.4794455,21.1686772" id="Fill-28" fill="#B93E23"></path>
                                    <path d="M32.4539811,21.1690598 C31.7134391,21.6888373 31.8741769,22.0605445 32.5561644,22.5139457 C33.2381519,22.968368 34.7892717,23.1225652 34.7892717,23.1225652 L37.9144737,23.2359155 L35.2910032,21.5560847 C35.2910032,21.5560847 33.1945231,20.6462189 32.4539811,21.1690598" id="Fill-32" fill="#B93E23"></path>
                                </g>
                            </g>
                        </g>
                    </g>
                    <g id="Group-4" transform="translate(99.373427, 74.256887) rotate(7.000000) translate(-99.373427, -74.256887) translate(43.873427, 6.256887)">
                        <path d="M55.7302632,0.742957746 L54.2434211,135.21831" id="Stroke-30" stroke="#181719" stroke-width="2" stroke-linecap="round"></path>
                        <g id="Group-2">
                            <g id="Group-36" transform="translate(0.717105, 0.000000)" fill="#67A48B">
                                <path d="M109.152012,35.5063049 C78.2809441,50.8020944 66.3483006,49.6085759 51.1276075,48.5724955 C37.0280247,47.611661 12.8176025,41.8802258 0.544456537,35.5063049 C0.544456537,15.9712676 24.8567978,0.134864109 54.8476552,0.134864109 C84.8396707,0.134864109 109.152012,15.9712676 109.152012,35.5063049" id="Fill-34"></path>
                            </g>
                            <path d="M0.717105263,36.3431783 C0.717105263,16.6817899 25.013947,0.742957746 54.9868421,0.742957746 C41.3140815,8.71120871 30.4110589,43.0915493 22.5613457,43.0915493 C14.7116324,43.0915493 0.717105263,36.3431783 0.717105263,36.3431783" id="Fill-37" fill="#05753C"></path>
                            <g id="Group-41" transform="translate(54.986842, 0.000000)">
                                <mask id="mask-18" fill="white">
                                    <use xlink:href="#path-17"></use>
                                </mask>
                                <g id="Clip-40"></g>
                                <path d="M0.415154194,0.13372355 C30.4958285,0.13372355 54.8800391,15.8632004 54.8800391,35.266338 C38.7675493,43.1724698 27.798604,46.643763 18.8322492,48.008594 C18.8322492,48.008594 19.943896,11.4812533 0.415154194,0.13372355" id="Fill-39" fill="#05753C" mask="url(#mask-18)"></path>
                            </g>
                        </g>
                    </g>
                </g>
                <g id="paper-stack" transform="translate(40.000000, 100.000000)">
                    <g id="Group" transform="translate(0.000000, 4.000000)">
                        <mask id="mask-20" fill="white">
                            <use xlink:href="#path-19"></use>
                        </mask>
                        <use id="Mask" fill="#00394E" xlink:href="#path-19"></use>
                        <g mask="url(#mask-20)">
                            <g transform="translate(12.000000, 4.000000)">
                                <g id="paper-stack" transform="translate(71.000000, 62.000000)">
                                    <g id="Page-1" transform="translate(8.000000, 74.000000)">
                                        <g id="Group-3">
                                            <mask id="mask-22" fill="white">
                                                <use xlink:href="#path-21"></use>
                                            </mask>
                                            <g id="Clip-2"></g>
                                            <path d="M16.5164447,4.24443234 L49.4883718,2.60934251 L66.9237916,15.1592228 C66.9237916,15.1592228 34.4766797,18.3078216 33.031999,17.9754144 C31.5874269,17.6435461 16.5164447,4.24443234 16.5164447,4.24443234" id="Fill-1" fill="#FEFEFE" mask="url(#mask-22)"></path>
                                        </g>
                                        <path d="M0,1.59358705 L32.7055481,0 L50,12.2313321 C50,12.2313321 17.8150272,15.3000114 16.3821257,14.9760415 C14.9492243,14.6520717 0,1.59358705 0,1.59358705" id="Fill-4" fill="#FEFEFE"></path>
                                        <path d="M4,2.80635414 L39.3218299,1 L58,14.8624908 C58,14.8624908 23.2405097,18.3398283 21.6925746,17.9728736 C20.1446394,17.605919 4,2.80635414 4,2.80635414" id="Fill-6" fill="#DBDCDD"></path>
                                        <polygon id="Fill-8" fill="#FEFEFE" points="62 12.9543125 25.324989 17 6 2.85538823 39.832424 0"></polygon>
                                    </g>
                                    <g id="Page-1-Copy" transform="translate(10.000000, 65.000000)">
                                        <g id="Group-3">
                                            <mask id="mask-24" fill="white">
                                                <use xlink:href="#path-23"></use>
                                            </mask>
                                            <g id="Clip-2"></g>
                                            <path d="M16.5164447,4.24443234 L49.4883718,2.60934251 L66.9237916,15.1592228 C66.9237916,15.1592228 34.4766797,18.3078216 33.031999,17.9754144 C31.5874269,17.6435461 16.5164447,4.24443234 16.5164447,4.24443234" id="Fill-1" fill="#FEFEFE" mask="url(#mask-24)"></path>
                                        </g>
                                        <path d="M0,1.59358705 L32.7055481,0 L50,12.2313321 C50,12.2313321 17.8150272,15.3000114 16.3821257,14.9760415 C14.9492243,14.6520717 0,1.59358705 0,1.59358705" id="Fill-4" fill="#FEFEFE"></path>
                                        <path d="M4,2.80635414 L39.3218299,1 L58,14.8624908 C58,14.8624908 23.2405097,18.3398283 21.6925746,17.9728736 C20.1446394,17.605919 4,2.80635414 4,2.80635414" id="Fill-6" fill="#DBDCDD"></path>
                                        <polygon id="Fill-8" fill="#FEFEFE" points="62 12.9543125 25.324989 17 6 2.85538823 39.832424 0"></polygon>
                                    </g>
                                    <g id="Page-1-Copy-12" transform="translate(39.156924, 64.885470) rotate(-5.000000) translate(-39.156924, -64.885470) translate(5.656924, 55.885470)">
                                        <g id="Group-3">
                                            <mask id="mask-26" fill="white">
                                                <use xlink:href="#path-25"></use>
                                            </mask>
                                            <g id="Clip-2"></g>
                                            <path d="M16.5164447,4.24443234 L49.4883718,2.60934251 L66.9237916,15.1592228 C66.9237916,15.1592228 34.4766797,18.3078216 33.031999,17.9754144 C31.5874269,17.6435461 16.5164447,4.24443234 16.5164447,4.24443234" id="Fill-1" fill="#FEFEFE" mask="url(#mask-26)"></path>
                                        </g>
                                        <path d="M0,1.59358705 L32.7055481,0 L50,12.2313321 C50,12.2313321 17.8150272,15.3000114 16.3821257,14.9760415 C14.9492243,14.6520717 0,1.59358705 0,1.59358705" id="Fill-4" fill="#FEFEFE"></path>
                                        <path d="M4,2.80635414 L39.3218299,1 L58,14.8624908 C58,14.8624908 23.2405097,18.3398283 21.6925746,17.9728736 C20.1446394,17.605919 4,2.80635414 4,2.80635414" id="Fill-6" fill="#DBDCDD"></path>
                                        <polygon id="Fill-8" fill="#FEFEFE" points="62 12.9543125 25.324989 17 6 2.85538823 39.832424 0"></polygon>
                                    </g>
                                    <g id="Page-1-Copy-2" transform="translate(5.000000, 47.000000)">
                                        <g id="Group-3">
                                            <mask id="mask-28" fill="white">
                                                <use xlink:href="#path-27"></use>
                                            </mask>
                                            <g id="Clip-2"></g>
                                            <path d="M16.5164447,4.24443234 L49.4883718,2.60934251 L66.9237916,15.1592228 C66.9237916,15.1592228 34.4766797,18.3078216 33.031999,17.9754144 C31.5874269,17.6435461 16.5164447,4.24443234 16.5164447,4.24443234" id="Fill-1" fill="#FEFEFE" mask="url(#mask-28)"></path>
                                        </g>
                                        <path d="M0,1.59358705 L32.7055481,0 L50,12.2313321 C50,12.2313321 17.8150272,15.3000114 16.3821257,14.9760415 C14.9492243,14.6520717 0,1.59358705 0,1.59358705" id="Fill-4" fill="#FEFEFE"></path>
                                        <path d="M4,2.80635414 L39.3218299,1 L58,14.8624908 C58,14.8624908 23.2405097,18.3398283 21.6925746,17.9728736 C20.1446394,17.605919 4,2.80635414 4,2.80635414" id="Fill-6" fill="#DBDCDD"></path>
                                        <polygon id="Fill-8" fill="#FEFEFE" points="62 12.9543125 25.324989 17 6 2.85538823 39.832424 0"></polygon>
                                    </g>
                                    <g id="Page-1-Copy-13" transform="translate(5.000000, 38.000000)">
                                        <g id="Group-3">
                                            <mask id="mask-30" fill="white">
                                                <use xlink:href="#path-29"></use>
                                            </mask>
                                            <g id="Clip-2"></g>
                                            <path d="M16.5164447,4.24443234 L49.4883718,2.60934251 L66.9237916,15.1592228 C66.9237916,15.1592228 34.4766797,18.3078216 33.031999,17.9754144 C31.5874269,17.6435461 16.5164447,4.24443234 16.5164447,4.24443234" id="Fill-1" fill="#FEFEFE" mask="url(#mask-30)"></path>
                                        </g>
                                        <path d="M0,1.59358705 L32.7055481,0 L50,12.2313321 C50,12.2313321 17.8150272,15.3000114 16.3821257,14.9760415 C14.9492243,14.6520717 0,1.59358705 0,1.59358705" id="Fill-4" fill="#FEFEFE"></path>
                                        <path d="M4,2.80635414 L39.3218299,1 L58,14.8624908 C58,14.8624908 23.2405097,18.3398283 21.6925746,17.9728736 C20.1446394,17.605919 4,2.80635414 4,2.80635414" id="Fill-6" fill="#DBDCDD"></path>
                                        <polygon id="Fill-8" fill="#FEFEFE" points="62 12.9543125 25.324989 17 6 2.85538823 39.832424 0"></polygon>
                                    </g>
                                    <g id="Page-1-Copy-3" transform="translate(10.000000, 34.000000)">
                                        <g id="Group-3">
                                            <mask id="mask-32" fill="white">
                                                <use xlink:href="#path-31"></use>
                                            </mask>
                                            <g id="Clip-2"></g>
                                            <path d="M16.5164447,4.24443234 L49.4883718,2.60934251 L66.9237916,15.1592228 C66.9237916,15.1592228 34.4766797,18.3078216 33.031999,17.9754144 C31.5874269,17.6435461 16.5164447,4.24443234 16.5164447,4.24443234" id="Fill-1" fill="#FEFEFE" mask="url(#mask-32)"></path>
                                        </g>
                                        <path d="M0,1.59358705 L32.7055481,0 L50,12.2313321 C50,12.2313321 17.8150272,15.3000114 16.3821257,14.9760415 C14.9492243,14.6520717 0,1.59358705 0,1.59358705" id="Fill-4" fill="#FEFEFE"></path>
                                        <path d="M4,2.80635414 L39.3218299,1 L58,14.8624908 C58,14.8624908 23.2405097,18.3398283 21.6925746,17.9728736 C20.1446394,17.605919 4,2.80635414 4,2.80635414" id="Fill-6" fill="#DBDCDD"></path>
                                        <polygon id="Fill-8" fill="#FEFEFE" points="62 12.9543125 25.324989 17 6 2.85538823 39.832424 0"></polygon>
                                    </g>
                                    <g id="Page-1-Copy-4" transform="translate(5.000000, 21.000000)">
                                        <g id="Group-3">
                                            <mask id="mask-34" fill="white">
                                                <use xlink:href="#path-33"></use>
                                            </mask>
                                            <g id="Clip-2"></g>
                                            <path d="M16.5164447,4.24443234 L49.4883718,2.60934251 L66.9237916,15.1592228 C66.9237916,15.1592228 34.4766797,18.3078216 33.031999,17.9754144 C31.5874269,17.6435461 16.5164447,4.24443234 16.5164447,4.24443234" id="Fill-1" fill="#FEFEFE" mask="url(#mask-34)"></path>
                                        </g>
                                        <path d="M0,1.59358705 L32.7055481,0 L50,12.2313321 C50,12.2313321 17.8150272,15.3000114 16.3821257,14.9760415 C14.9492243,14.6520717 0,1.59358705 0,1.59358705" id="Fill-4" fill="#FEFEFE"></path>
                                        <path d="M4,2.80635414 L39.3218299,1 L58,14.8624908 C58,14.8624908 23.2405097,18.3398283 21.6925746,17.9728736 C20.1446394,17.605919 4,2.80635414 4,2.80635414" id="Fill-6" fill="#DBDCDD"></path>
                                        <polygon id="Fill-8" fill="#FEFEFE" points="62 12.9543125 25.324989 17 6 2.85538823 39.832424 0"></polygon>
                                    </g>
                                    <g id="Page-1-Copy-5" transform="translate(5.000000, 11.000000)">
                                        <g id="Group-3">
                                            <mask id="mask-36" fill="white">
                                                <use xlink:href="#path-35"></use>
                                            </mask>
                                            <g id="Clip-2"></g>
                                            <path d="M16.5164447,4.24443234 L49.4883718,2.60934251 L66.9237916,15.1592228 C66.9237916,15.1592228 34.4766797,18.3078216 33.031999,17.9754144 C31.5874269,17.6435461 16.5164447,4.24443234 16.5164447,4.24443234" id="Fill-1" fill="#FEFEFE" mask="url(#mask-36)"></path>
                                        </g>
                                        <path d="M0,1.59358705 L32.7055481,0 L50,12.2313321 C50,12.2313321 17.8150272,15.3000114 16.3821257,14.9760415 C14.9492243,14.6520717 0,1.59358705 0,1.59358705" id="Fill-4" fill="#FEFEFE"></path>
                                        <path d="M4,2.80635414 L39.3218299,1 L58,14.8624908 C58,14.8624908 23.2405097,18.3398283 21.6925746,17.9728736 C20.1446394,17.605919 4,2.80635414 4,2.80635414" id="Fill-6" fill="#DBDCDD"></path>
                                        <polygon id="Fill-8" fill="#FEFEFE" points="62 12.9543125 25.324989 17 6 2.85538823 39.832424 0"></polygon>
                                    </g>
                                    <g id="Page-1-Copy-6" transform="translate(33.925113, 10.740920) rotate(-363.000000) translate(-33.925113, -10.740920) translate(0.425113, 1.740920)">
                                        <g id="Group-3">
                                            <mask id="mask-38" fill="white">
                                                <use xlink:href="#path-37"></use>
                                            </mask>
                                            <g id="Clip-2"></g>
                                            <path d="M16.5164447,4.24443234 L49.4883718,2.60934251 L66.9237916,15.1592228 C66.9237916,15.1592228 34.4766797,18.3078216 33.031999,17.9754144 C31.5874269,17.6435461 16.5164447,4.24443234 16.5164447,4.24443234" id="Fill-1" fill="#FEFEFE" mask="url(#mask-38)"></path>
                                        </g>
                                        <path d="M0,1.59358705 L32.7055481,0 L50,12.2313321 C50,12.2313321 17.8150272,15.3000114 16.3821257,14.9760415 C14.9492243,14.6520717 0,1.59358705 0,1.59358705" id="Fill-4" fill="#FEFEFE"></path>
                                        <path d="M4,2.80635414 L39.3218299,1 L58,14.8624908 C58,14.8624908 23.2405097,18.3398283 21.6925746,17.9728736 C20.1446394,17.605919 4,2.80635414 4,2.80635414" id="Fill-6" fill="#DBDCDD"></path>
                                        <polygon id="Fill-8" fill="#FEFEFE" points="62 12.9543125 25.324989 17 6 2.85538823 39.832424 0"></polygon>
                                    </g>
                                </g>
                                <g id="woman1">
                                    <path d="M31,90.5012819 L33.633383,112.714123 L36.0186289,143 L44.6698957,143 L49,112.336163 L48.9474665,91.001422 C48.9474665,91.001422 48.9698212,90.6405903 49,90 L44.373696,90.5024238 L31,90.5012819 Z" id="Fill-1" fill="#F1856C"></path>
                                    <polygon id="Fill-3" fill="#F1856C" points="13.1279239 90 7.98963242 114.778862 5 139.38352 13.9198869 141 23.7587182 113.872774 31 90 22.4387799 91.1662637"></polygon>
                                    <path d="M36,142 L36,148.601338 C36,148.601338 37.1598991,152 38.2771629,152 L43.4458744,152 L54.5955548,152 C54.5955548,152 55.8363517,150.432109 53.9713302,148.851309 C52.108495,147.270508 46.0335098,146.480695 45.2518625,145.796503 C44.4713083,145.109964 44.4614694,142 44.4614694,142 L36,142 Z" id="Fill-5" fill="#4E87BC"></path>
                                    <g id="Group-9" transform="translate(2.000000, 139.000000)">
                                        <mask id="mask-40" fill="white">
                                            <use xlink:href="#path-39"></use>
                                        </mask>
                                        <g id="Clip-8"></g>
                                        <path d="M3.22813636,0.0193191964 C3.22813636,0.0193191964 -0.0939545455,9.7081808 0.117590909,12.4494308 C0.329136364,15.1929576 4.91340909,15.5344754 6.80313636,14.3676228 C8.69404545,13.1996317 12.6921364,1.64608259 12.6921364,1.64608259 L3.22813636,0.0193191964 Z" id="Fill-7" fill="#4E87BC" mask="url(#mask-40)"></path>
                                    </g>
                                    <path d="M5.04088006,139 L5,144.227315 C5,144.227315 5.16919801,146.660052 6.66018453,146.950817 C8.15117104,147.239429 9.42185947,146.163597 9.42185947,146.163597 L11.1899219,143.441172 L13,140.34829 L5.04088006,139 Z" id="Fill-10" fill="#F1856C"></path>
                                    <path d="M36,142.306863 C36,142.306863 37.6689516,144.659478 38.5499675,145.368748 C39.5164875,146.148831 40.2871059,146.681626 41.9452341,147.336941 C43.6033624,147.994505 45.0049787,147.972024 45.0049787,147.972024 C45.0049787,147.972024 48.6773216,148.03497 49.625442,147.972024 C50.57248,147.911326 51,147.501051 51,147.501051 C51,147.501051 45.9130529,146.373639 45.282055,145.921775 C44.6499747,145.471035 44.4464969,143.581524 44.4464969,143.581524 L44.4118623,142 L36,142.306863 Z" id="Fill-12" fill="#F1856C"></path>
                                    <polygon id="Fill-14" fill="#E4583F" points="16.349445 60 13.3953268 74.2265951 9.46022686 94.6770452 5 132.909618 16.349445 136.289051 23.9794273 116.549706 27.6028029 105.60272 30.4429574 92.1062981 31.0798135 117.973039 32.2194506 130.065196 33.8149426 139 45.86046 139 51 113.8825 49.9352214 91.8315018 48.1866605 80.2732345 42.9532681 65.6910867 41.2225839 60"></polygon>
                                    <path d="M38.9263111,6.20557769 L36.5934147,2.42026676 L34.1376123,0.779698597 L31.2087374,0 L28.0004252,0 C28.0004252,0 23.8807528,0.0971765113 20.215601,2.8992898 C16.5469707,5.70368959 16.0008503,11.4794041 16.0008503,11.4794041 C16.0008503,11.4794041 15.9486732,15.3470293 16.6617603,17.1430799 C17.3748474,18.9391304 19.8816675,21.2142041 19.8816675,21.2142041 L22.7015502,23.4938507 L21.2347938,27.2985969 L17.5221028,30.2298978 L20.6214229,32.1471332 L27.3464721,33 L37.3830283,29.6765633 L33.5856945,26.2388013 L32.5780966,23.5875974 C32.5780966,23.5875974 34.910993,21.8475663 36.8925635,19.7657024 C38.871815,17.6826953 39.206908,15.228131 39.206908,15.228131 L40,11.162723 L38.9263111,6.20557769 Z" id="Fill-19" fill="#F1856C"></path>
                                    <path d="M24.9990203,14.5547574 C24.9679151,15.3827464 24.2702715,16.0300294 23.4437637,15.9989243 C22.6157747,15.9678191 21.9699729,15.2701754 22.0010781,14.4436676 C22.0321832,13.6156786 22.7283457,12.9713579 23.5548535,13.0009819 C24.3828424,13.0335682 25.0286442,13.7282495 24.9990203,14.5547574" id="Fill-21" fill="#32303E"></path>
                                    <path d="M33.4421864,14.9989243 C32.6156786,14.9663379 31.971358,14.2701754 32.0009819,13.4436676 C32.032087,12.6156786 32.7282495,11.9713579 33.5547574,12.0009819 C34.3827464,12.032087 35.0300294,12.7282495 34.9989243,13.5547574 C34.9678191,14.3827464 34.2701754,15.0300294 33.4421864,14.9989243 Z" id="Fill-23" fill="#32303E"></path>
                                    <path d="M26,18.0700933 L30,18 C30,18 29.9157895,20.014617 27.8748538,19.99992 C26.5309942,19.9874841 26,18.0700933 26,18.0700933" id="Fill-25" fill="#E13E2B" transform="translate(28.000000, 19.000000) rotate(183.000000) translate(-28.000000, -19.000000) "></path>
                                    <path d="M11.8236098,61.0513169 L16.100712,47.768992 C16.100712,47.768992 17.4376729,42.0185507 16.8512865,38.5625981 C16.2672457,35.1066455 15.5706187,31 15.5706187,31 L11.1903125,33.0715239 C11.1903125,33.0715239 7.68841311,38.2474899 5.36749586,43.7089871 C4.50902622,45.7372832 3.81474476,47.8019817 3.5203788,49.6573664 C2.4320457,56.5169432 2.19514561,54.5352877 2.01336583,62.3765916 C1.82924051,70.216758 3.60833676,76.5189231 3.60833676,76.5189231 L3.60481844,76.5189231 L4.69315154,82.8756918 C4.69315154,82.8756918 5.39212409,85.3465046 6.60359833,85.8413497 C7.81507257,86.3350572 10.362335,85.5660565 10.7446589,85.0416345 C11.1234645,84.5137997 10.7446589,81.0248574 10.7446589,81.0248574 C10.7446589,81.0248574 11.5421443,82.4445509 12.0487822,82.6618277 L12.5284462,79.9418861 C11.874039,78.202534 10.929957,75.9148709 10.929957,75.9114581 L11.8236098,61.0513169 Z" id="Fill-29" fill="#F1856C"></path>
                                    <g id="Group-33" transform="translate(42.000000, 30.000000)">
                                        <mask id="mask-42" fill="white">
                                            <use xlink:href="#path-41"></use>
                                        </mask>
                                        <g id="Clip-32"></g>
                                        <path d="M19.4075556,47.402768 L17.9642222,44.325008 L17.9675556,44.325008 C17.9675556,44.325008 17.5175556,31.045168 16.2164444,24.589488 C14.9097778,18.129328 11.842,11.059888 11.842,11.059888 C11.842,11.059888 7.78644444,4.059888 4.47866667,1.784048 C3.53866667,1.136688 2.18866667,0.541968 0.749777778,0.018928 C0.749777778,0.018928 0.224222222,4.128208 0.170888889,8.215088 C0.116444444,12.300848 1.48422222,17.005968 1.48422222,17.005968 L6.71866667,25.864048 L11.6997778,45.396848 L11.9075556,47.015248 L11.9886667,50.182608 C11.9886667,50.182608 13.1231111,52.509968 13.672,52.816848 C14.2197778,53.123728 14.7242222,52.489808 14.7242222,52.489808 L14.5231111,49.567728 L15.5364444,49.322448 L16.4275556,51.327248 C16.4275556,51.327248 15.4353333,54.350128 15.4153333,55.125168 C15.3931111,55.902448 16.8164444,56.001008 17.1575556,55.575408 C17.4975556,55.149808 18.9408889,53.449648 19.4075556,51.937648 C19.8742222,50.426768 19.4075556,47.402768 19.4075556,47.402768" id="Fill-31" fill="#F1856C" mask="url(#mask-42)"></path>
                                    </g>
                                    <path d="M3,47.8033353 L14.0958281,52.5129385 L15.6204804,48.0839563 L17.0142857,60.5416906 L28.9099874,62 L38.9499368,62 L42.3439949,60.5416906 L43.6922882,47.6354227 L45.8154235,52.1541116 L57,46.5623922 L53.2725664,38.7832087 L47.077244,31.6101208 L41.9059418,29.239793 L36.6766119,28 L30.3026549,29.0327775 L24.5192162,28.7533065 L20.5551201,28.1265095 C20.5551201,28.1265095 13.4006321,30.6313974 10.7871049,32.9442208 C8.17243995,35.2570443 6.1278129,40.3013226 6.1278129,40.3013226 L3,47.8033353 Z" id="Fill-34" fill="#E3C521"></path>
                                    <path d="M20.488881,28 L23.663343,42.0864091 L23.663343,62.8573359 L23.9979761,82.6668453 C23.9979761,82.6668453 24.1391139,87.2571304 22.0641608,91.2163081 C19.9892078,95.1766209 9.89557979,91.3059799 9.89557979,91.3059799 L11.2193156,80.628232 L12.4224014,62.5122699 L13.4889022,53.788004 L11.2876081,61.4316687 L10.7401301,70.8017982 L1.79836854,72.4102141 L0,60.7120246 L0.838859248,50.3736672 L6.94875945,35.6970137 L13.9384944,30.0374782 L20.488881,28 Z" id="Fill-36" fill="#B93E23"></path>
                                    <path d="M36.2106815,28 L36.1372265,42.3631766 L35.5822331,62.2452148 C35.5822331,62.2452148 33.7073813,85.9223966 36.6863902,89.7186803 C39.6665651,93.513824 45.1908485,92.9734521 45.1908485,92.9734521 L52.2215428,91.3454962 L49.2868401,66.2820438 L46.1819083,52.4250383 L48.057926,57.5460312 L52.2215428,70.65062 L61,69.5641761 L60.3715515,56.3284844 L56.0085569,42.3631766 L49.2868401,31.5169775 L43.8243521,28.8025777 L36.2106815,28 Z" id="Fill-38" fill="#B93E23"></path>
                                    <path d="M22.9989243,28.5554721 C22.9678201,29.3838418 22.27168,30.0314224 21.4437175,29.9988211 C20.615755,29.9691835 19.9699739,29.2712191 20.001078,28.4443313 C20.0321822,27.6159616 20.7283224,26.9713448 21.5562848,27.0009823 C22.3827662,27.0321018 23.0300284,27.7285843 22.9989243,28.5554721" id="Fill-40" fill="#65A68E"></path>
                                    <path d="M25.9989261,35.5554721 C25.9678066,36.3838418 25.2698407,37.0314224 24.4429511,36.9988211 C23.6145796,36.9691835 22.9699614,36.2712191 23.0010809,35.4428494 C23.0307186,34.6159616 23.7272026,33.9713448 24.5540922,34.0009823 C25.3809817,34.0321018 26.0300456,34.7271025 25.9989261,35.5554721" id="Fill-42" fill="#65A68E"></path>
                                    <path d="M24.9990224,33.5547574 C24.9664361,34.3827464 24.2687925,35.0300294 23.4422847,34.9989243 C22.6142958,34.9678191 21.9699753,34.2716566 22.0010804,33.4436676 C22.0321856,32.6156786 22.7268668,31.9713579 23.5533745,32.0009819 C24.3813634,32.0335682 25.0286463,32.7282495 24.9990224,33.5547574" id="Fill-44" fill="#65A68E"></path>
                                    <path d="M23.9990203,30.5554265 C23.9679151,31.381553 23.2702715,32.0300179 22.4422825,31.9989271 C21.6157747,31.9663558 20.969973,31.2705145 21.0010781,30.444388 C21.0321832,29.616781 21.7283457,28.9727577 22.5548535,29.0008875 C23.3828424,29.0334588 24.0286442,29.7278195 23.9990203,30.5554265" id="Fill-46" fill="#65A68E"></path>
                                    <path d="M26.9989238,38.5554253 C26.9663235,39.3830317 26.2698634,40.0300155 25.4430022,39.9989248 C24.6146591,39.9663535 23.9685812,39.2705127 24.0011814,38.4429064 C24.0322999,37.6167806 24.7257964,36.9727577 25.5541394,37.0008875 C26.3824825,37.0334587 27.0300422,37.727819 26.9989238,38.5554253" id="Fill-48" fill="#65A68E"></path>
                                    <path d="M28.9990224,40.5554721 C28.9679173,41.3838418 28.2702737,42.0314224 27.4422847,41.9988211 C26.6142958,41.9691835 25.9699753,41.2712191 26.0010804,40.4443313 C26.0321856,39.6159616 26.728348,38.9713448 27.5533745,39.0009823 C28.3813634,39.0321018 29.0286463,39.7285843 28.9990224,40.5554721" id="Fill-50" fill="#65A68E"></path>
                                    <path d="M28.9990224,42.5547574 C28.9679183,43.3827464 28.2702975,44.0300294 27.4423356,43.9989243 C26.6158549,43.9678191 25.9685931,43.2716566 26.0011783,42.4421864 C26.0322825,41.6156786 26.7284221,40.971358 27.5534217,41.0009819 C28.3813836,41.032087 29.0286454,41.7282495 28.9990224,42.5547574" id="Fill-52" fill="#65A68E"></path>
                                    <path d="M31.9989238,44.5554253 C31.9678054,45.3830317 31.2713452,46.0300155 30.4430022,45.9989248 C29.6146591,45.9663535 28.9685812,45.2705127 29.0011814,44.4429064 C29.0322999,43.6167806 29.72876,42.9727577 30.5541394,43.0008875 C31.3824825,43.0334587 32.0300422,43.7292995 31.9989238,44.5554253" id="Fill-54" fill="#65A68E"></path>
                                    <path d="M33.9990224,43.5547055 C33.9679173,44.3826669 33.2702737,45.0314095 32.4422847,44.9988242 C31.6142958,44.9677201 30.9699753,44.2715808 31.0010804,43.4436194 C31.0321856,42.615658 31.7268668,41.9713589 32.5533745,42.0009818 C33.3813634,42.0320859 34.0286463,42.7282252 33.9990224,43.5547055" id="Fill-56" fill="#65A68E"></path>
                                    <path d="M34.9989243,40.5554721 C34.9678202,41.3838418 34.27168,42.0314224 33.4437175,41.9988211 C32.615755,41.9691835 31.9699739,41.2712191 32.001078,40.4443313 C32.0321822,39.6159616 32.7283224,38.9713448 33.5548037,39.0009823 C34.3827662,39.0321018 35.0300284,39.7285843 34.9989243,40.5554721" id="Fill-58" fill="#65A68E"></path>
                                    <path d="M35.9991141,38.5554253 C35.9650467,39.3830317 35.2688863,40.0300155 34.442381,39.9989248 C33.6143945,39.9663535 32.9685947,39.2705127 33.0011809,38.4429064 C33.0308048,37.6167806 33.7254839,36.9727577 34.5534704,37.0008875 C35.3814569,37.0334587 36.0272567,37.727819 35.9991141,38.5554253" id="Fill-60" fill="#65A68E"></path>
                                    <path d="M35.9989243,35.5554721 C35.9678202,36.3838418 35.2701988,37.0314224 34.4437175,36.9988211 C33.615755,36.9691835 32.9699739,36.2712191 33.001078,35.4428494 C33.0321822,34.6159616 33.7283224,33.9713448 34.5548037,34.0009823 C35.3827662,34.0321018 36.0300284,34.7271025 35.9989243,35.5554721" id="Fill-62" fill="#65A68E"></path>
                                    <path d="M35.9990224,32.5561401 C35.9664372,33.3841267 35.2702981,34.0314079 34.4423369,33.9988216 C33.6143757,33.9677166 32.9685957,33.2715561 33.0011809,32.4435694 C33.032285,31.617064 33.7269429,30.9727452 34.553423,31.0008879 C35.3813841,31.0334741 36.0286454,31.7281534 35.9990224,32.5561401" id="Fill-64" fill="#65A68E"></path>
                                    <path d="M37.9990229,28.5547118 C37.9664526,29.3842068 37.2691527,30.030028 36.4430522,29.9989219 C35.6154713,29.9678158 34.9699877,29.2716325 35.0010775,28.4436187 C35.0336478,27.6156049 35.7279868,26.9727463 36.5540873,27.0008898 C37.3816682,27.0319959 38.0286322,27.7281792 37.9990229,28.5547118" id="Fill-66" fill="#65A68E"></path>
                                    <path d="M36.9989243,30.5554253 C36.9678202,31.3830317 36.27168,32.0300155 35.4437175,31.9989248 C34.615755,31.9663535 33.9699739,31.2705127 34.001078,30.4429064 C34.0321822,29.6167806 34.7283224,28.9727577 35.5533226,29.0008875 C36.3827662,29.0334587 37.0300285,29.727819 36.9989243,30.5554253" id="Fill-68" fill="#65A68E"></path>
                                </g>
                            </g>
                        </g>
                    </g>
                    <g id="Group-6" transform="translate(27.000000, 0.000000)">
                        <g id="Group-18" transform="translate(2.000000, 0.000000)">
                            <mask id="mask-44" fill="white">
                                <use xlink:href="#path-43"></use>
                            </mask>
                            <g id="Clip-17"></g>
                            <path d="M1.19306,4.75501765 C0.820193333,5.56438235 0.76126,8.20927059 0.749926667,9.09645882 C0.728393333,10.7085176 1.34492667,12.6085235 2.22892667,13.9682118 C2.84886,14.9221059 4.33352667,16.7832 5.36486,17.2901647 C6.52086,17.8593882 9.23632667,18.0294882 10.5135933,17.8227 C11.5687267,17.6503765 13.5973933,16.7298353 14.3941267,16.0272 C15.2871933,15.2378471 16.5565267,12.2060647 16.5565267,12.2060647 L15.6543933,6.88071176 C15.6543933,6.88071176 14.6899267,3.67882941 13.9135933,2.75828824 C13.2007267,1.91557059 10.58386,0.580341176 10.58386,0.580341176 C10.58386,0.580341176 7.54992667,0.120070588 6.31119333,0.500294118 C5.21186,0.837158824 2.72759333,2.02785882 2.04986,2.93950588 C1.74839333,3.34307647 1.40386,4.30030588 1.19306,4.75501765" id="Fill-16" fill="#F1DBC7" mask="url(#mask-44)"></path>
                        </g>
                        <path d="M8.73635486,12.7057098 C8.73635486,12.7057098 9.9223891,14.3996785 13.3040953,16.0947719 C16.6858016,17.7887406 21.0144784,18.3533968 21.0144784,18.3533968 L24.9439422,17.8697271 C24.9439422,17.8697271 25.3431553,16.3366067 24.0108976,12.3019019 C22.6798005,8.26719703 18.5472487,7.26273886 18.5472487,7.26273886 C18.5472487,7.26273886 15.0390476,5.60476424 10.9598789,6.08843391 C6.88071029,6.57322838 6.38633594,7.26273886 6.38633594,7.26273886 C6.38633594,7.26273886 3.61505436,8.83297805 2.20040099,11.2524512 C0.784587123,13.6730491 1.00392222,13.0915207 0.207817046,16.5604446 C-0.587127627,20.0304932 1.15478763,23 1.15478763,23 C1.15478763,23 2.11684476,22.5500747 4.9461515,19.0800261 C7.77777924,15.6111022 8.73635486,12.7057098 8.73635486,12.7057098" id="Fill-27" fill="#F1DBC7"></path>
                    </g>
                    <g id="stack-2" transform="translate(88.000000, 17.000000)">
                        <g id="Page-1-Copy-7" transform="translate(5.000000, 46.000000)">
                            <g id="Group-3">
                                <mask id="mask-46" fill="white">
                                    <use xlink:href="#path-45"></use>
                                </mask>
                                <g id="Clip-2"></g>
                                <path d="M16.5164447,4.24443234 L49.4883718,2.60934251 L66.9237916,15.1592228 C66.9237916,15.1592228 34.4766797,18.3078216 33.031999,17.9754144 C31.5874269,17.6435461 16.5164447,4.24443234 16.5164447,4.24443234" id="Fill-1" fill="#FEFEFE" mask="url(#mask-46)"></path>
                            </g>
                            <path d="M0,1.59358705 L32.7055481,0 L50,12.2313321 C50,12.2313321 17.8150272,15.3000114 16.3821257,14.9760415 C14.9492243,14.6520717 0,1.59358705 0,1.59358705" id="Fill-4" fill="#FEFEFE"></path>
                            <path d="M4,2.80635414 L39.3218299,1 L58,14.8624908 C58,14.8624908 23.2405097,18.3398283 21.6925746,17.9728736 C20.1446394,17.605919 4,2.80635414 4,2.80635414" id="Fill-6" fill="#DBDCDD"></path>
                            <polygon id="Fill-8" fill="#FEFEFE" points="62 12.9543125 25.324989 17 6 2.85538823 39.832424 0"></polygon>
                        </g>
                        <g id="Page-1-Copy-8" transform="translate(0.000000, 37.000000)">
                            <g id="Group-3">
                                <mask id="mask-48" fill="white">
                                    <use xlink:href="#path-47"></use>
                                </mask>
                                <g id="Clip-2"></g>
                                <path d="M16.5164447,4.24443234 L49.4883718,2.60934251 L66.9237916,15.1592228 C66.9237916,15.1592228 34.4766797,18.3078216 33.031999,17.9754144 C31.5874269,17.6435461 16.5164447,4.24443234 16.5164447,4.24443234" id="Fill-1" fill="#FEFEFE" mask="url(#mask-48)"></path>
                            </g>
                            <path d="M0,1.59358705 L32.7055481,0 L50,12.2313321 C50,12.2313321 17.8150272,15.3000114 16.3821257,14.9760415 C14.9492243,14.6520717 0,1.59358705 0,1.59358705" id="Fill-4" fill="#FEFEFE"></path>
                            <path d="M4,2.80635414 L39.3218299,1 L58,14.8624908 C58,14.8624908 23.2405097,18.3398283 21.6925746,17.9728736 C20.1446394,17.605919 4,2.80635414 4,2.80635414" id="Fill-6" fill="#DBDCDD"></path>
                            <polygon id="Fill-8" fill="#FEFEFE" points="62 12.9543125 25.324989 17 6 2.85538823 39.832424 0"></polygon>
                        </g>
                        <g id="Page-1-Copy-9" transform="translate(5.000000, 28.000000)">
                            <g id="Group-3">
                                <mask id="mask-50" fill="white">
                                    <use xlink:href="#path-49"></use>
                                </mask>
                                <g id="Clip-2"></g>
                                <path d="M16.5164447,4.24443234 L49.4883718,2.60934251 L66.9237916,15.1592228 C66.9237916,15.1592228 34.4766797,18.3078216 33.031999,17.9754144 C31.5874269,17.6435461 16.5164447,4.24443234 16.5164447,4.24443234" id="Fill-1" fill="#FEFEFE" mask="url(#mask-50)"></path>
                            </g>
                            <path d="M0,1.59358705 L32.7055481,0 L50,12.2313321 C50,12.2313321 17.8150272,15.3000114 16.3821257,14.9760415 C14.9492243,14.6520717 0,1.59358705 0,1.59358705" id="Fill-4" fill="#FEFEFE"></path>
                            <path d="M4,2.80635414 L39.3218299,1 L58,14.8624908 C58,14.8624908 23.2405097,18.3398283 21.6925746,17.9728736 C20.1446394,17.605919 4,2.80635414 4,2.80635414" id="Fill-6" fill="#DBDCDD"></path>
                            <polygon id="Fill-8" fill="#FEFEFE" points="62 12.9543125 25.324989 17 6 2.85538823 39.832424 0"></polygon>
                        </g>
                        <g id="Page-1-Copy-10" transform="translate(0.000000, 16.000000)">
                            <g id="Group-3">
                                <mask id="mask-52" fill="white">
                                    <use xlink:href="#path-51"></use>
                                </mask>
                                <g id="Clip-2"></g>
                                <path d="M16.5164447,4.24443234 L49.4883718,2.60934251 L66.9237916,15.1592228 C66.9237916,15.1592228 34.4766797,18.3078216 33.031999,17.9754144 C31.5874269,17.6435461 16.5164447,4.24443234 16.5164447,4.24443234" id="Fill-1" fill="#FEFEFE" mask="url(#mask-52)"></path>
                            </g>
                            <path d="M0,1.59358705 L32.7055481,0 L50,12.2313321 C50,12.2313321 17.8150272,15.3000114 16.3821257,14.9760415 C14.9492243,14.6520717 0,1.59358705 0,1.59358705" id="Fill-4" fill="#FEFEFE"></path>
                            <path d="M4,2.80635414 L39.3218299,1 L58,14.8624908 C58,14.8624908 23.2405097,18.3398283 21.6925746,17.9728736 C20.1446394,17.605919 4,2.80635414 4,2.80635414" id="Fill-6" fill="#DBDCDD"></path>
                            <polygon id="Fill-8" fill="#FEFEFE" points="62 12.9543125 25.324989 17 6 2.85538823 39.832424 0"></polygon>
                        </g>
                        <g id="Page-1-Copy-11" transform="translate(38.665957, 16.305191) rotate(-373.000000) translate(-38.665957, -16.305191) translate(5.165957, 7.305191)">
                            <g id="Group-3">
                                <mask id="mask-54" fill="white">
                                    <use xlink:href="#path-53"></use>
                                </mask>
                                <g id="Clip-2"></g>
                                <path d="M16.5164447,4.24443234 L49.4883718,2.60934251 L66.9237916,15.1592228 C66.9237916,15.1592228 34.4766797,18.3078216 33.031999,17.9754144 C31.5874269,17.6435461 16.5164447,4.24443234 16.5164447,4.24443234" id="Fill-1" fill="#FEFEFE" mask="url(#mask-54)"></path>
                            </g>
                            <path d="M0,1.59358705 L32.7055481,0 L50,12.2313321 C50,12.2313321 17.8150272,15.3000114 16.3821257,14.9760415 C14.9492243,14.6520717 0,1.59358705 0,1.59358705" id="Fill-4" fill="#FEFEFE"></path>
                            <path d="M4,2.80635414 L39.3218299,1 L58,14.8624908 C58,14.8624908 23.2405097,18.3398283 21.6925746,17.9728736 C20.1446394,17.605919 4,2.80635414 4,2.80635414" id="Fill-6" fill="#DBDCDD"></path>
                            <polygon id="Fill-8" fill="#FEFEFE" points="62 12.9543125 25.324989 17 6 2.85538823 39.832424 0"></polygon>
                        </g>
                    </g>
                </g>
            </g>
        </g>
    </g>
</svg>