<?xml version="1.0" encoding="UTF-8" standalone="no"?>
<svg width="208px" height="200px" viewBox="0 0 208 200" version="1.1" xmlns="http://www.w3.org/2000/svg" xmlns:xlink="http://www.w3.org/1999/xlink">
    <!-- Generator: Sketch 46.2 (44496) - http://www.bohemiancoding.com/sketch -->
    <title>Step 2</title>
    <desc>Created with Sketch.</desc>
    <defs></defs>
    <g id="Page-1" stroke="none" stroke-width="1" fill="none" fill-rule="evenodd">
        <g id="Step-2" stroke="#000000" stroke-width="9">
            <path d="M138.531925,33.8913521 C124.993386,25.1038066 108.842722,20 91.5,20 C55.0571126,20 23.8778919,42.536436 11.1387021,74.4329436 L43.4550572,89.3207273 C52.2292035,71.366486 70.670428,59 92,59 C99.2005521,59 106.071937,60.409333 112.353359,62.9672039 L97.9199219,78.9980469 L156.869141,82.03125 L151.039062,20 L138.531925,33.8913521 Z" id="Combined-Shape"></path>
            <path d="M138.393223,121.891352 C124.854684,113.103807 108.70402,108 91.3612979,108 C54.9184105,108 23.7391898,130.536436 11,162.432944 L43.3163551,177.320727 C52.0905014,159.366486 70.5317259,147 91.8612979,147 C99.0618499,147 105.933235,148.409333 112.214657,150.967204 L97.7812198,166.998047 L156.730439,170.03125 L150.90036,108 L138.393223,121.891352 Z" id="Combined-Shape" transform="translate(83.865219, 142.660364) rotate(180.000000) translate(-83.865219, -142.660364) "></path>
        </g>
    </g>
</svg>