<?xml version="1.0" encoding="UTF-8" standalone="no"?>
<svg width="242px" height="137px" viewBox="0 0 242 137" version="1.1" xmlns="http://www.w3.org/2000/svg" xmlns:xlink="http://www.w3.org/1999/xlink">
    <!-- Generator: Sketch 43.2 (39069) - http://www.bohemiancoding.com/sketch -->
    <title>step-1</title>
    <desc>Created with Sketch.</desc>
    <defs></defs>
    <g id="Page-1" stroke="none" stroke-width="1" fill="none" fill-rule="evenodd">
        <g id="step-1" stroke-width="8">
            <circle id="Oval" stroke="#000000" cx="71.5" cy="33.5" r="28.5"></circle>
            <path d="M6,122.287784 C12.5354252,93.6255076 39.2052407,72.1377452 71.1583202,72 C71.5316847,72.00072 71.9045632,72.0020232 72.2769451,72.0039065 C103.834349,72.360559 130.144575,93.5419328 136.826425,121.821075 C119.17177,126.287518 95.9310274,129 70.4673843,129 C45.9032165,129 23.4076796,126.475765 6,122.287784 Z" id="Combined-Shape" stroke="#3F3F3F"></path>
            <path d="M110.160332,43.3675333 C110.196067,43.3854652 110.232707,43.4043478 110.270229,43.4241987 C115.121062,45.9905486 122.903869,46.5274271 132.508279,45.3731391 L134.709968,45.1085333 L134.709968,42.8910009 L134.709968,26.9976021 C134.709968,16.7843016 142.995501,8.5 153.205571,8.5 L217.484723,8.5 C227.699554,8.5 235.980326,16.7815265 235.980326,26.9976021 L235.980326,70.0023979 C235.980326,80.2156984 227.694793,88.5 217.484723,88.5 L153.205571,88.5 C142.990739,88.5 134.709968,80.2184735 134.709968,70.0023979 L134.709968,69.1179493 L134.709968,67.4620803 L133.185317,66.8160601 C123.326463,62.6386979 115.759662,55.6492002 111.98551,48.5450238 C110.858006,46.4226967 110.249823,44.5427651 110.160332,43.3675333 L110.160332,43.3675333 Z" id="Combined-Shape" stroke="#000000"></path>
        </g>
    </g>
</svg>
