<?xml version="1.0" encoding="UTF-8" standalone="no"?>
<svg width="242px" height="137px" viewBox="0 0 242 137" version="1.1" xmlns="http://www.w3.org/2000/svg" xmlns:xlink="http://www.w3.org/1999/xlink">
    <!-- Generator: Sketch 43.2 (39069) - http://www.bohemiancoding.com/sketch -->
    <title>step-3</title>
    <desc>Created with Sketch.</desc>
    <defs></defs>
    <g id="Page-1" stroke="none" stroke-width="1" fill="none" fill-rule="evenodd">
        <g id="step-3" stroke="#000000" stroke-width="8">
            <path d="M92.4038424,56.0936606 C84.4870212,52.287355 76.2102425,50.9338329 68.9161225,52.2227295 L60.3466965,43.6533035 L38.6533035,65.3466965 L47.9934027,74.6867957 L47.9934027,74.6867957 C46.6501377,86.3297665 51.7306231,100.107809 62.5097142,110.8869 C78.8074793,127.184665 101.961093,130.45495 114.224758,118.191285 C126.488423,105.92762 123.218138,82.7740061 106.920373,66.476241 C105.94951,65.5053776 104.954318,64.5807439 103.938548,63.7028696" id="Combined-Shape"></path>
            <path d="M42.1536001,15.5355339 L64.9138512,38.2957849 L32.2957849,70.9138512 L9.53553391,48.1536001 L42.1536001,15.5355339 Z" id="Rectangle"></path>
            <path d="M135.295785,15.5355339 L167.913851,48.1536001 L145.1536,70.9138512 L112.535534,38.2957849 L135.295785,15.5355339 Z" id="Rectangle"></path>
            <path d="M89.3228703,57.3364908 C96.5795201,52.8345001 104.738355,51.3180072 111.602924,53.0903089 L112.985768,53.4473331 L113.995651,52.4374508 L118.897567,47.5355339 L131.693014,60.330981 L126.364983,65.6590129 L125.409481,66.6145147 L125.685435,67.937321 C127.118166,74.8052166 125.383454,82.7013235 120.926807,89.662654 C118.785298,80.8924685 113.841076,72.2341395 106.662107,65.0551706 C106.562896,64.9559595 106.463385,64.8571534 106.363575,64.7587541 L104.785577,63.203058 L103.0517,64.5828907 L87.1853054,77.2094927 C87.1546869,77.2198582 87.1221617,77.2307625 87.0877758,77.2421671 C86.7075267,77.3682826 86.2751242,77.4957605 85.8025361,77.6151818 C84.05744,78.0561612 82.2945177,78.2595173 80.7220963,78.1049523 C79.04015,77.9396214 77.7391322,77.3807204 76.8279967,76.3804635 C76.3124584,75.8144985 75.9642484,75.2259625 75.7535877,74.606805 C75.2621967,73.1625467 75.5069609,71.4777758 76.2701201,69.7800539 C76.4983946,69.272235 76.7217397,68.8700609 76.884003,68.6121723 L89.3228703,57.3364908 Z" id="Combined-Shape"></path>
        </g>
    </g>
</svg>
