<?xml version="1.0" encoding="UTF-8"?>
<svg width="366px" height="286px" viewBox="0 0 366 286" version="1.1" xmlns="http://www.w3.org/2000/svg" xmlns:xlink="http://www.w3.org/1999/xlink">
    <!-- Generator: Sketch 46.2 (44496) - http://www.bohemiancoding.com/sketch -->
    <title>BEFORE Copy</title>
    <desc>Created with Sketch.</desc>
    <defs>
        <path d="M91.2423296,282.151789 C120.886789,285.723455 119.346023,244.768257 150.003742,243.127106 C180.662049,240.860073 180.662637,284.740336 210.307684,284.944676 C239.954496,285.758464 241.495262,237.284835 272.155922,238.506589 C303.044756,240.695744 304.61671,248.035156 313.478516,243.127106 C322.340322,238.219056 315.850018,225.978655 317.38329,221.60923 C326.121267,196.708287 354.569271,206.057944 356.684002,181.177029 C358.798733,154.179122 322.337854,145.622557 323.901555,121.799067 C325.464668,95.9743292 362.764148,102.803291 364.878879,77.9695323 C366.918336,52.2241016 354.010596,59.1223681 338.884036,45.5937637 C310.910308,22.3339953 317.39564,-4.36454646 283.194159,0.602491173 C248.858596,7.90800898 247.317241,56.4330801 213.994938,64.4880833 C180.671458,73.2282691 180.671458,29.3994491 146.334131,40.6110076 C111.996215,51.1223795 113.536981,92.129019 80.2117374,97.086054 C47.115256,99.9589623 53.0960159,65.7727113 24.4283552,77.9695323 C9.25474851,83.8532427 32.6055902,99.2580612 33.9293553,115.925359 C35.4930566,134.421715 -1.80642324,127.56346 0.308307783,142.837529 C2.4230388,160.277175 38.8839184,168.804447 40.4476197,185.300985 C42.0377845,203.545132 8.73959216,192.101368 8.37792375,206.415182 C8.12152144,216.641478 20.9798623,223.732653 36.3963455,236.20026 C64.6229471,258.305435 61.4620241,277.108302 91.2423296,282.151789 Z" id="path-1"></path>
        <polygon id="path-3" points="0.0430188679 180.999215 0.0430188679 0.258731362 189.694619 0.258731362 189.694619 180.999215"></polygon>
        <polygon id="path-5" points="0.22648927 0.31938756 0.22648927 148.480995 166.573914 148.480995 166.573914 0.31938756"></polygon>
    </defs>
    <g id="Supporting-someone-struggling-with-debt" stroke="none" stroke-width="1" fill="none" fill-rule="evenodd">
        <g id="Group-11" transform="translate(-668.000000, -235.000000)">
            <g id="BEFORE-Copy" transform="translate(668.000000, 235.000000)">
                <g id="bad-atmos" transform="translate(0.000000, 1.000000)">
                    <g id="cloud" transform="translate(0.500000, 0.000000)">
                        <mask id="mask-2" fill="white">
                            <use xlink:href="#path-1"></use>
                        </mask>
                        <use id="Mask" fill="#E7E6EC" xlink:href="#path-1"></use>
                        <path d="M197.657112,286.623061 C220.522827,286.316923 221.98532,334.590976 243.889179,333.937213 C265.793626,333.711901 265.793626,289.657982 288.659341,291.820265 C311.526821,293.541222 310.064328,334.54949 331.969363,331.964479 C353.992057,328.385232 350.146983,305.517107 371.086632,289.946954 C382.572436,281.502392 396.590835,284.268369 398.062152,271.854019 C398.818695,265.797052 390.313764,266.350677 381.714118,265.425824 C373.120356,264.718414 364.432466,262.531097 364.967223,256.016353 C365.997322,244.077662 402.471397,236.471405 404.024486,222.98414 C404.781618,216.927173 395.878414,216.702576 386.881083,214.941564 C377.889635,213.406579 368.802884,210.335179 369.33823,203.82115 C370.130658,191.517668 412.865332,165.3514 401.672497,160.534008 C380.36046,151.14242 364.003602,196.288566 339.722457,194.239297 C315.235999,190.705113 316.697903,149.663227 291.249588,141.595616 C265.800097,133.035894 265.800097,177.05548 241.312462,170.883353 C216.82365,165.189747 215.361158,116.88136 189.910489,111.067588 C164.57748,106.975487 172.405287,139.444777 151.746841,156.007019 C140.60107,165.410053 123.345303,155.532075 124.817208,174.770169 C126.370298,192.579855 163.640331,186.638047 164.67043,206.05353 C165.205187,215.20264 156.317866,220.405566 147.52585,227.116296 C138.726773,233.604574 130.023,241.601373 130.779543,251.206829 C132.409699,269.020806 171.593444,268.29337 168.655516,287.361943 C163.605034,318.1067 136.19712,342.392504 147.467609,347.211326 C167.748371,355.141604 174.585495,287.434186 197.657112,286.623061 Z" id="Fill-1" fill="#DAD9DD" mask="url(#mask-2)"></path>
                    </g>
                </g>
                <g id="sheet-copy-4" transform="translate(99.529928, 131.982877) rotate(-27.000000) translate(-99.529928, -131.982877) translate(54.529928, 84.982877)">
                    <path d="M51.1600063,16.6674734 L71.5311839,30.4940995 L80.5236325,37.1090039 C80.5236325,37.1090039 82.901997,38.964343 81.6174643,40.9138039 C80.3329316,42.8632647 65.7432306,65.0153865 65.7432306,65.0153865 C65.7432306,65.0153865 50.3612213,87.8299256 48.0425858,91.1412995 C45.7232306,94.4562386 40.9952867,92.4532995 40.9952867,92.4532995 L6.73964184,70.6220473 C6.73964184,70.6220473 3.66755773,67.3406212 5.68826801,64.368656 C7.70681941,61.3945517 35.8845017,19.9210908 38.6334736,15.9180647 C41.8775484,11.1941517 46.1024736,13.6256299 46.1024736,13.6256299 L51.1600063,16.6674734 Z" id="Fill-5" fill="#9B9B9B"></path>
                    <path d="M52.7969927,10.179534 L73.1681703,24.0061601 L82.1606189,30.6210644 C82.1606189,30.6210644 84.5389834,32.4764035 83.2544507,34.4258644 C81.9699179,36.3753253 67.380217,58.527447 67.380217,58.527447 C67.380217,58.527447 51.9982077,81.3419861 49.6795721,84.6533601 C47.360217,87.9682992 42.6322731,85.9653601 42.6322731,85.9653601 L8.37662822,64.1341079 C8.37662822,64.1341079 5.30454411,60.8526818 7.32525439,57.8807166 C9.34380579,54.9066122 37.521488,13.4331514 40.27046,9.43012528 C43.5145348,4.70621223 47.73946,7.13769049 47.73946,7.13769049 L52.7969927,10.179534 Z" id="Fill-5-Copy-2" fill="#B2B0B2" transform="translate(45.136044, 46.538567) rotate(-9.000000) translate(-45.136044, -46.538567) "></path>
                </g>
                <g id="sheet-copy-5" transform="translate(228.187916, 195.224938) rotate(-136.000000) translate(-228.187916, -195.224938) translate(189.187916, 154.724938)" fill="#9B9B9B">
                    <path d="M46.2340506,3.85156587 L66.6052282,17.678192 L75.5976768,24.2930963 C75.5976768,24.2930963 77.9760413,26.1484354 76.6915086,28.0978963 C75.4069759,30.0473572 60.8172749,52.1994789 60.8172749,52.1994789 C60.8172749,52.1994789 45.4352656,75.014018 43.1166301,78.325392 C40.7972749,81.6403311 36.069331,79.637392 36.069331,79.637392 L1.81368613,57.8061398 C1.81368613,57.8061398 -1.25839798,54.5247137 0.7623123,51.5527485 C2.7808637,48.5786441 30.9585459,7.10518326 33.7075179,3.10215717 C36.9515927,-1.62175587 41.1765179,0.809722389 41.1765179,0.809722389 L46.2340506,3.85156587 Z" id="Fill-5"></path>
                </g>
                <g id="sheet-copy-6" transform="translate(229.520293, 188.815524) rotate(-143.000000) translate(-229.520293, -188.815524) translate(190.520293, 148.315524)" fill="#B2B0B2">
                    <path d="M46.2340506,3.85156587 L66.6052282,17.678192 L75.5976768,24.2930963 C75.5976768,24.2930963 77.9760413,26.1484354 76.6915086,28.0978963 C75.4069759,30.0473572 60.8172749,52.1994789 60.8172749,52.1994789 C60.8172749,52.1994789 45.4352656,75.014018 43.1166301,78.325392 C40.7972749,81.6403311 36.069331,79.637392 36.069331,79.637392 L1.81368613,57.8061398 C1.81368613,57.8061398 -1.25839798,54.5247137 0.7623123,51.5527485 C2.7808637,48.5786441 30.9585459,7.10518326 33.7075179,3.10215717 C36.9515927,-1.62175587 41.1765179,0.809722389 41.1765179,0.809722389 L46.2340506,3.85156587 Z" id="Fill-5"></path>
                </g>
                <g id="Group-3" transform="translate(90.000000, 39.000000)">
                    <mask id="mask-4" fill="white">
                        <use xlink:href="#path-3"></use>
                    </mask>
                    <g id="Clip-2"></g>
                    <path d="M179.220189,48.8899528 C172.848377,38.6798425 156.957208,22.1703622 146.631245,16.1382165 C131.515849,7.30912205 107.622453,-0.162472441 89.6957736,0.277200787 C76.8596604,0.592169291 49.6036226,6.25376378 31.3822642,20.1551339 C13.1580377,34.0593543 3.876,55.6318465 1.1930566,69.9116063 C-1.8089434,85.8894882 1.05611321,112.185795 7.56773585,126.427075 C14.0650189,140.631299 25.9317736,157.926063 49.3455094,170.065177 C72.7592453,182.201441 94.0055472,181.753217 106.295321,180.216854 C120.855774,178.399016 141.301208,171.117685 153.464792,162.173862 C166.518868,152.578724 181.637132,136.987783 187.378717,110.462732 C193.120302,83.9412441 187.347887,61.9148268 179.220189,48.8899528" id="Fill-1" fill="#833047" mask="url(#mask-4)"></path>
                </g>
                <g id="sheet-copy" transform="translate(125.500000, 147.000000) rotate(28.000000) translate(-125.500000, -147.000000) translate(87.000000, 106.000000)">
                    <path d="M46.1600063,5.09356038 L66.5311839,18.9201865 L75.5236325,25.5350908 C75.5236325,25.5350908 77.901997,27.3904299 76.6174643,29.3398908 C75.3329316,31.2893517 60.7432306,53.4414734 60.7432306,53.4414734 C60.7432306,53.4414734 45.3612213,76.2560126 43.0425858,79.5673865 C40.7232306,82.8823256 35.9952867,80.8793865 35.9952867,80.8793865 L1.73964184,59.0481343 C1.73964184,59.0481343 -1.33244227,55.7667082 0.68826801,52.794743 C2.70681941,49.8206386 30.8845017,8.34717777 33.6334736,4.34415168 C36.8775484,-0.37976136 41.1024736,2.0517169 41.1024736,2.0517169 L46.1600063,5.09356038 Z" id="Fill-5" fill="#9B9B9B"></path>
                    <path d="M46.1600063,3.66747342 L66.5311839,17.4940995 L75.5236325,24.1090039 C75.5236325,24.1090039 77.901997,25.964343 76.6174643,27.9138039 C75.3329316,29.8632647 60.7432306,52.0153865 60.7432306,52.0153865 C60.7432306,52.0153865 45.3612213,74.8299256 43.0425858,78.1412995 C40.7232306,81.4562386 35.9952867,79.4532995 35.9952867,79.4532995 L1.73964184,57.6220473 C1.73964184,57.6220473 -1.33244227,54.3406212 0.68826801,51.368656 C2.70681941,48.3945517 30.8845017,6.92109081 33.6334736,2.91806473 C36.8775484,-1.80584832 41.1024736,0.625629945 41.1024736,0.625629945 L46.1600063,3.66747342 Z" id="Fill-5-Copy" fill="#D8D8D8"></path>
                </g>
                <g id="sheet-copy-2" transform="translate(144.500000, 164.000000) rotate(28.000000) translate(-144.500000, -164.000000) translate(106.000000, 123.000000)">
                    <path d="M46.1600063,5.09356038 L66.5311839,18.9201865 L75.5236325,25.5350908 C75.5236325,25.5350908 77.901997,27.3904299 76.6174643,29.3398908 C75.3329316,31.2893517 60.7432306,53.4414734 60.7432306,53.4414734 C60.7432306,53.4414734 45.3612213,76.2560126 43.0425858,79.5673865 C40.7232306,82.8823256 35.9952867,80.8793865 35.9952867,80.8793865 L1.73964184,59.0481343 C1.73964184,59.0481343 -1.33244227,55.7667082 0.68826801,52.794743 C2.70681941,49.8206386 30.8845017,8.34717777 33.6334736,4.34415168 C36.8775484,-0.37976136 41.1024736,2.0517169 41.1024736,2.0517169 L46.1600063,5.09356038 Z" id="Fill-5" fill="#9B9B9B"></path>
                    <path d="M46.1600063,3.66747342 L66.5311839,17.4940995 L75.5236325,24.1090039 C75.5236325,24.1090039 77.901997,25.964343 76.6174643,27.9138039 C75.3329316,29.8632647 60.7432306,52.0153865 60.7432306,52.0153865 C60.7432306,52.0153865 45.3612213,74.8299256 43.0425858,78.1412995 C40.7232306,81.4562386 35.9952867,79.4532995 35.9952867,79.4532995 L1.73964184,57.6220473 C1.73964184,57.6220473 -1.33244227,54.3406212 0.68826801,51.368656 C2.70681941,48.3945517 30.8845017,6.92109081 33.6334736,2.91806473 C36.8775484,-1.80584832 41.1024736,0.625629945 41.1024736,0.625629945 L46.1600063,3.66747342 Z" id="Fill-5-Copy" fill="#CACACA"></path>
                </g>
                <g id="sheet-copy-3" transform="translate(143.500000, 151.000000) rotate(20.000000) translate(-143.500000, -151.000000) translate(105.000000, 110.000000)">
                    <path d="M46.1600063,5.09356038 L66.5311839,18.9201865 L75.5236325,25.5350908 C75.5236325,25.5350908 77.901997,27.3904299 76.6174643,29.3398908 C75.3329316,31.2893517 60.7432306,53.4414734 60.7432306,53.4414734 C60.7432306,53.4414734 45.3612213,76.2560126 43.0425858,79.5673865 C40.7232306,82.8823256 35.9952867,80.8793865 35.9952867,80.8793865 L1.73964184,59.0481343 C1.73964184,59.0481343 -1.33244227,55.7667082 0.68826801,52.794743 C2.70681941,49.8206386 30.8845017,8.34717777 33.6334736,4.34415168 C36.8775484,-0.37976136 41.1024736,2.0517169 41.1024736,2.0517169 L46.1600063,5.09356038 Z" id="Fill-5" fill="#9B9B9B"></path>
                    <path d="M46.1600063,3.66747342 L66.5311839,17.4940995 L75.5236325,24.1090039 C75.5236325,24.1090039 77.901997,25.964343 76.6174643,27.9138039 C75.3329316,29.8632647 60.7432306,52.0153865 60.7432306,52.0153865 C60.7432306,52.0153865 45.3612213,74.8299256 43.0425858,78.1412995 C40.7232306,81.4562386 35.9952867,79.4532995 35.9952867,79.4532995 L1.73964184,57.6220473 C1.73964184,57.6220473 -1.33244227,54.3406212 0.68826801,51.368656 C2.70681941,48.3945517 30.8845017,6.92109081 33.6334736,2.91806473 C36.8775484,-1.80584832 41.1024736,0.625629945 41.1024736,0.625629945 L46.1600063,3.66747342 Z" id="Fill-5-Copy" fill="#E8E8E8"></path>
                    <g id="Group-6" transform="translate(28.778966, 57.072935) rotate(-148.000000) translate(-28.778966, -57.072935) translate(11.778966, 51.072935)" fill="#B1223B">
                        <rect id="Rectangle-7" x="0" y="0" width="34" height="5"></rect>
                        <rect id="Rectangle-7-Copy" x="0" y="7" width="23" height="5"></rect>
                    </g>
                </g>
                <g id="sheet-copy-4" transform="translate(167.500000, 164.000000) rotate(4.000000) translate(-167.500000, -164.000000) translate(129.000000, 123.000000)">
                    <path d="M46.1600063,5.09356038 L66.5311839,18.9201865 L75.5236325,25.5350908 C75.5236325,25.5350908 77.901997,27.3904299 76.6174643,29.3398908 C75.3329316,31.2893517 60.7432306,53.4414734 60.7432306,53.4414734 C60.7432306,53.4414734 45.3612213,76.2560126 43.0425858,79.5673865 C40.7232306,82.8823256 35.9952867,80.8793865 35.9952867,80.8793865 L1.73964184,59.0481343 C1.73964184,59.0481343 -1.33244227,55.7667082 0.68826801,52.794743 C2.70681941,49.8206386 30.8845017,8.34717777 33.6334736,4.34415168 C36.8775484,-0.37976136 41.1024736,2.0517169 41.1024736,2.0517169 L46.1600063,5.09356038 Z" id="Fill-5" fill="#9B9B9B"></path>
                    <path d="M46.1600063,3.66747342 L66.5311839,17.4940995 L75.5236325,24.1090039 C75.5236325,24.1090039 77.901997,25.964343 76.6174643,27.9138039 C75.3329316,29.8632647 60.7432306,52.0153865 60.7432306,52.0153865 C60.7432306,52.0153865 45.3612213,74.8299256 43.0425858,78.1412995 C40.7232306,81.4562386 35.9952867,79.4532995 35.9952867,79.4532995 L1.73964184,57.6220473 C1.73964184,57.6220473 -1.33244227,54.3406212 0.68826801,51.368656 C2.70681941,48.3945517 30.8845017,6.92109081 33.6334736,2.91806473 C36.8775484,-1.80584832 41.1024736,0.625629945 41.1024736,0.625629945 L46.1600063,3.66747342 Z" id="Fill-5-Copy" fill="#F3F3F3"></path>
                    <g id="Group-6" transform="translate(27.712690, 57.813356) rotate(-143.000000) translate(-27.712690, -57.813356) translate(10.712690, 51.813356)" fill="#B1223B">
                        <rect id="Rectangle-7" x="0" y="0" width="34" height="5"></rect>
                        <rect id="Rectangle-7-Copy" x="0" y="7" width="23" height="5"></rect>
                    </g>
                </g>
                <polygon id="Fill-4" fill="#F6B7AE" points="122.021815 92.2411702 121 109.55833 122.859589 116.729219 124.40297 118.540849 134.004335 126 142.847509 122.34035 141.662261 113.120228 141.781639 105.340706 145.218006 111.77096 151 111.121655 149.423222 100.750624 145.398494 90"></polygon>
                <g id="sheet" transform="translate(121.000000, 94.000000)">
                    <path d="M46.1600063,5.09356038 L66.5311839,18.9201865 L75.5236325,25.5350908 C75.5236325,25.5350908 77.901997,27.3904299 76.6174643,29.3398908 C75.3329316,31.2893517 60.7432306,53.4414734 60.7432306,53.4414734 C60.7432306,53.4414734 45.3612213,76.2560126 43.0425858,79.5673865 C40.7232306,82.8823256 35.9952867,80.8793865 35.9952867,80.8793865 L1.73964184,59.0481343 C1.73964184,59.0481343 -1.33244227,55.7667082 0.68826801,52.794743 C2.70681941,49.8206386 30.8845017,8.34717777 33.6334736,4.34415168 C36.8775484,-0.37976136 41.1024736,2.0517169 41.1024736,2.0517169 L46.1600063,5.09356038 Z" id="Fill-5" fill="#9B9B9B"></path>
                    <path d="M46.1600063,3.66747342 L66.5311839,17.4940995 L75.5236325,24.1090039 C75.5236325,24.1090039 77.901997,25.964343 76.6174643,27.9138039 C75.3329316,29.8632647 60.7432306,52.0153865 60.7432306,52.0153865 C60.7432306,52.0153865 45.3612213,74.8299256 43.0425858,78.1412995 C40.7232306,81.4562386 35.9952867,79.4532995 35.9952867,79.4532995 L1.73964184,57.6220473 C1.73964184,57.6220473 -1.33244227,54.3406212 0.68826801,51.368656 C2.70681941,48.3945517 30.8845017,6.92109081 33.6334736,2.91806473 C36.8775484,-1.80584832 41.1024736,0.625629945 41.1024736,0.625629945 L46.1600063,3.66747342 Z" id="Fill-5-Copy" fill="#FFFFFF"></path>
                </g>
                <path d="M161.758992,105.16278 L178.625415,116.818829 L186.237396,122.243002 C186.237396,122.243002 187.955166,123.820593 186.234527,127.112057 C184.514605,130.403521 175.605152,144.236517 175.605152,144.236517 C175.605152,144.236517 163.280241,162.010279 161.41759,164.588224 C159.55709,167.166882 155.494689,165.424468 155.494689,165.424468 L125.922505,146.340685 C125.922505,146.340685 124.03762,144.09738 125.656412,141.780584 C127.275922,139.464501 148.932736,107.309046 151.138223,104.190253 C153.741058,100.511349 157.388899,102.579127 157.388899,102.579127 L161.758992,105.16278 Z" id="Fill-6" fill="#FFFFFF"></path>
                <path d="M175.498585,109 C174.119445,109 173,107.880555 173,106.498585 C173,105.119445 174.119445,104 175.498585,104 C176.880555,104 178,105.119445 178,106.498585 C178,107.880555 176.880555,109 175.498585,109 Z" id="Fill-9" fill="#FFFFFF"></path>
                <polygon id="Fill-12" fill="#B1223B" points="156.308664 160 137 146.987789 137.693577 146 157 159.012211"></polygon>
                <polygon id="Fill-13" fill="#B1223B" points="159.202387 156 137 141.128902 137.795036 140 160 154.871098"></polygon>
                <polygon id="Fill-14" fill="#171411" points="162.377293 153 145 140.916614 145.622202 140 163 152.082875"></polygon>
                <polygon id="Fill-15" fill="#171411" points="163.308664 149 144 135.989322 144.693577 135 164 148.012327"></polygon>
                <polygon id="Fill-16" fill="#171411" points="165.482715 145 151 135.705564 151.518966 135 166 144.294436"></polygon>
                <g id="Group-20" transform="translate(118.000000, 0.000000)">
                    <mask id="mask-6" fill="white">
                        <use xlink:href="#path-5"></use>
                    </mask>
                    <g id="Clip-18"></g>
                    <path d="M21.7315021,105.099182 L26.1272575,110.423258 C26.1272575,110.423258 27.6560601,113.180828 29.3776652,113.845981 C31.0971202,114.511847 32.3958498,114.417029 33.6587425,113.467421 C34.9216352,112.514962 34.9603391,109.376694 33.6587425,105.764335 C32.3571459,102.152689 29.7668541,94.9593397 29.7668541,94.9593397 L21.7315021,105.099182 Z" id="Fill-17" fill="#F6B7AE" mask="url(#mask-6)"></path>
                    <path d="M88.7386395,0.414205742 C88.7386395,0.414205742 74.6554506,-0.10123445 57.1484034,1.26044019 C39.6442232,2.61997608 24.0250644,17.7694976 24.0250644,17.7694976 C24.0250644,17.7694976 9.5978412,26.7921962 5.05658798,42.4678517 C0.512467811,58.1463589 0.22648927,86.5297895 0.22648927,86.5297895 L1.75242489,99.365177 L31.4691073,96.735933 L32.8051073,82.0569378 L40.1652918,51.9254306 L58.1059657,40.4068038 L78.8913734,43.6712584 C78.8913734,43.6712584 133.003906,77.0166016 130.229492,78.5478516 C127.455078,80.0791016 120.966797,79.6552734 115.443359,79.6552734 L110.607422,99.365177 L125.796875,104.412109 L140.414063,106.664062 L151.40918,108.081055 C151.40918,108.081055 157.91591,106.571957 160.950195,93.6679688 C162.024414,89.0996094 159.492188,82.0569378 156.077148,71.0634766 C152.662109,60.0700153 152.34053,61.5940335 147.964844,51.9254306 C143.58844,42.2532632 140.496094,39.9023438 132.404297,29.4853516 C124.3125,19.0683594 115.257395,14.405868 108.896484,9.08203125 L88.7386395,0.414205742 Z" id="Fill-19" fill="#DBC438" mask="url(#mask-6)"></path>
                </g>
                <path d="M238.116161,40.4854639 C235.094681,37.4775142 228.295282,33.0647055 224.267594,31.8106749 C218.371641,29.9755957 209.587656,29.3076413 203.496884,30.8848756 C199.137361,32.0153706 187.842137,38.4880646 185.21315,42.3593275 C182.317268,46.6327995 178.749153,56.7548231 179.013907,61.8808348 C179.309347,67.6151878 182.462133,76.4336229 185.868256,80.8155478 C189.263674,85.1838262 194.749294,90.1920481 203.756643,92.5040323 C212.760424,94.8152983 220.43187,94.122924 224.501662,92.6160763 C229.330035,90.8319915 235.267378,85.5486873 238.687773,81.5028944 C242.355795,77.1654999 246.046653,66.6980074 245.999554,61.0168034 C245.951741,55.3435 241.971152,44.3179423 238.116161,40.4854639" id="Fill-21" fill="#171411"></path>
                <polygon id="Path-3" fill="#DBC438" points="242.027344 80.2285156 234.918945 77.8291016 228.380859 98.2939453 234.918945 100.231445"></polygon>
                <g id="Group-2" transform="translate(167.198455, 122.119076) rotate(-146.000000) translate(-167.198455, -122.119076) translate(153.198455, 112.119076)">
                    <rect id="Rectangle-6" fill="#D8D8D8" x="2" y="0" width="1" height="20"></rect>
                    <rect id="Rectangle-6" fill="#D8D8D8" x="0" y="17" width="28" height="1"></rect>
                    <polyline id="Path-2" stroke="#F5A623" points="3.94934673 2.14524128 11.9488584 4.29465534 11.9488584 7.30686237 18.7252256 7.30686237 19.2398741 12.4494405 21.7096006 12.4494405 23.4976866 15.6042257"></polyline>
                </g>
                <path d="M212.744466,69.4565701 L205.734864,76.6779102 L203.085613,81.0777584 L201.545683,86.5180358 C201.545683,86.5180358 202.848241,88.4473564 204.68399,87.5276327 C206.522125,86.6052849 209.408747,83.4557887 209.408747,83.4557887 L209.084897,87.4095512 L206.980764,95.4640219 C206.980764,95.4640219 206.401054,100.619592 208.276165,101.885688 C210.154259,103.148504 213.087402,105.570487 216.546577,105.452405 C220.00635,105.332356 225.730689,96.0583655 225.730689,96.0583655 L231.545683,78.3612277 L212.744466,69.4565701 Z" id="Fill-8" fill="#F6B7AE" transform="translate(216.545683, 87.456570) rotate(-284.000000) translate(-216.545683, -87.456570) "></path>
            </g>
        </g>
    </g>
</svg>